<?xml version="1.0" encoding="utf-8" standalone="no"?>
<!DOCTYPE svg PUBLIC "-//W3C//DTD SVG 1.1//EN"
  "http://www.w3.org/Graphics/SVG/1.1/DTD/svg11.dtd">
<svg xmlns:xlink="http://www.w3.org/1999/xlink" width="460.8pt" height="345.6pt" viewBox="0 0 460.8 345.6" xmlns="http://www.w3.org/2000/svg" version="1.1">
 <metadata>
  <rdf:RDF xmlns:dc="http://purl.org/dc/elements/1.1/" xmlns:cc="http://creativecommons.org/ns#" xmlns:rdf="http://www.w3.org/1999/02/22-rdf-syntax-ns#">
   <cc:Work>
    <dc:type rdf:resource="http://purl.org/dc/dcmitype/StillImage"/>
    <dc:date>2026-02-10T18:55:41.241541</dc:date>
    <dc:format>image/svg+xml</dc:format>
    <dc:creator>
     <cc:Agent>
      <dc:title>Matplotlib v3.10.8, https://matplotlib.org/</dc:title>
     </cc:Agent>
    </dc:creator>
   </cc:Work>
  </rdf:RDF>
 </metadata>
 <defs>
  <style type="text/css">*{stroke-linejoin: round; stroke-linecap: butt}</style>
 </defs>
 <g id="figure_1">
  <g id="patch_1">
   <path d="M 0 345.6 
L 460.8 345.6 
L 460.8 0 
L 0 0 
z
" style="fill: #ffffff"/>
  </g>
  <g id="axes_1">
   <g id="patch_2">
    <path d="M 48.008 303.352 
L 450 303.352 
L 450 10.8 
L 48.008 10.8 
z
" style="fill: #ffffff"/>
   </g>
   <g id="patch_3">
    <path d="M 66.295988 285.030711 
L 66.295988 285.028035 
L 66.292273 285.016157 
L 66.292273 285.013303 
L 66.289173 285.002427 
L 66.289173 284.999353 
L 66.286631 284.989479 
L 66.286631 284.986131 
L 66.284593 284.977275 
L 66.284593 284.973576 
L 66.283009 284.965775 
L 66.283009 284.961615 
L 66.281834 284.954944 
L 66.281834 284.950154 
L 66.281027 284.944746 
L 66.281027 284.939052 
L 66.280549 284.935149 
L 66.280549 284.928048 
L 66.280364 284.926121 
L 66.280364 255.680201 
L 66.28044 255.679885 
L 66.28044 255.670464 
L 66.280747 255.669186 
L 66.280747 255.661304 
L 66.281258 255.659178 
L 66.281258 255.652691 
L 66.281894 255.650043 
L 66.281948 255.644595 
L 66.282619 255.641801 
L 66.282794 255.636989 
L 66.283516 255.633986 
L 66.283775 255.629845 
L 66.284569 255.626541 
L 66.284873 255.623138 
L 66.285775 255.619382 
L 66.286069 255.616844 
L 66.287147 255.612361 
L 66.287349 255.61094 
L 66.630068 254.184842 
L 66.630248 254.184167 
L 66.631416 254.179306 
L 66.989584 252.841413 
L 66.989755 252.840834 
L 66.990989 252.836225 
L 67.361508 251.581605 
L 67.361671 251.581102 
L 67.362957 251.576744 
L 67.743036 250.400708 
L 67.743192 250.400266 
L 67.74452 250.396156 
L 68.131645 249.294249 
L 68.131795 249.293854 
L 68.133153 249.289988 
L 68.525069 248.257979 
L 68.525215 248.25762 
L 68.526593 248.253993 
L 68.921281 247.287867 
L 68.921427 247.287533 
L 68.922813 247.284139 
L 69.318473 246.380087 
L 69.318621 246.379769 
L 69.320007 246.376602 
L 69.715037 245.53101 
L 69.71519 245.530702 
L 69.716568 245.527754 
L 70.109551 244.737198 
L 70.109712 244.736895 
L 70.111072 244.734158 
L 70.50076 243.995394 
L 70.50093 243.99509 
L 70.502267 243.992555 
L 70.887563 243.30251 
L 70.887745 243.302202 
L 70.889051 243.299862 
L 71.269001 242.655627 
L 71.269197 242.655311 
L 71.270467 242.653157 
L 71.644243 242.051979 
L 71.644455 242.051655 
L 71.645685 242.049677 
L 72.012576 241.488952 
L 72.012806 241.488618 
L 72.013991 241.486807 
L 72.373394 240.964075 
L 72.373643 240.96373 
L 72.374779 240.962078 
L 72.726186 240.475011 
L 72.726456 240.474655 
L 72.72754 240.473152 
L 73.070532 240.019553 
L 73.070822 240.019186 
L 73.071852 240.017825 
L 73.406087 239.595618 
L 73.406088 239.595617 
L 73.406106 239.595612 
L 73.407373 239.594011 
L 73.407374 239.59401 
L 73.407462 239.593986 
L 73.408624 239.592518 
L 73.408625 239.592517 
L 73.408772 239.592479 
L 73.409838 239.591132 
L 73.409839 239.591131 
L 73.409995 239.591093 
L 73.410006 239.591093 
L 73.411011 239.589844 
L 73.411012 239.589844 
L 73.41116 239.58981 
L 73.411166 239.58981 
L 73.412144 239.588648 
L 73.412145 239.588648 
L 73.412284 239.588618 
L 73.412286 239.588618 
L 73.413235 239.587539 
L 73.413236 239.587538 
L 73.413365 239.587513 
L 73.414286 239.58651 
L 73.414287 239.58651 
L 73.414404 239.586488 
L 73.415297 239.585557 
L 73.415298 239.585556 
L 73.415405 239.585539 
L 73.416269 239.584673 
L 73.41627 239.584673 
L 73.416368 239.584659 
L 73.417203 239.583856 
L 73.417204 239.583856 
L 73.417293 239.583844 
L 73.418099 239.5831 
L 73.4181 239.5831 
L 73.418181 239.583091 
L 73.418959 239.582402 
L 73.418959 239.582402 
L 73.419033 239.582394 
L 73.419783 239.581757 
L 73.419783 239.581757 
L 73.419851 239.581751 
L 73.420572 239.581162 
L 73.420572 239.581162 
L 73.420634 239.581157 
L 73.421327 239.580613 
L 73.421328 239.580613 
L 73.421384 239.58061 
L 73.422049 239.580108 
L 73.42205 239.580108 
L 73.422101 239.580106 
L 73.42274 239.579643 
L 73.422741 239.579643 
L 73.422787 239.579641 
L 73.4234 239.579215 
L 73.4234 239.579215 
L 73.423443 239.579215 
L 73.42403 239.578822 
L 73.42403 239.578822 
L 73.42407 239.578822 
L 73.424631 239.578462 
L 73.424631 239.578462 
L 73.424668 239.578462 
L 73.425204 239.578132 
L 73.425204 239.578132 
L 73.425239 239.578132 
L 73.42575 239.57783 
L 73.42575 239.577829 
L 73.425783 239.577829 
L 73.42627 239.577553 
L 73.42627 239.577553 
L 73.426302 239.577553 
L 73.426765 239.577301 
L 73.426765 239.577301 
L 73.426795 239.577301 
L 73.427236 239.577071 
L 73.427237 239.57707 
L 73.427265 239.57707 
L 73.427684 239.576861 
L 73.427685 239.576861 
L 73.427712 239.576861 
L 73.42811 239.57667 
L 73.428111 239.57667 
L 73.428137 239.57667 
L 73.428515 239.576498 
L 73.428516 239.576498 
L 73.428541 239.576498 
L 73.4289 239.576341 
L 73.4289 239.576341 
L 73.428925 239.576341 
L 73.429265 239.576199 
L 73.429265 239.576199 
L 73.42929 239.576199 
L 73.429611 239.576072 
L 73.429611 239.576072 
L 73.429635 239.576072 
L 73.429939 239.575957 
L 73.429939 239.575957 
L 73.429964 239.575957 
L 73.43025 239.575854 
L 73.430251 239.575854 
L 73.430275 239.575854 
L 73.430545 239.575761 
L 73.430546 239.575761 
L 73.43057 239.575761 
L 73.430825 239.575679 
L 73.430849 239.575679 
L 73.431089 239.575606 
L 73.431114 239.575606 
L 73.431339 239.575541 
L 73.431365 239.575541 
L 73.431576 239.575484 
L 73.431602 239.575484 
L 73.4318 239.575434 
L 73.431827 239.575434 
L 73.432011 239.57539 
L 73.432039 239.57539 
L 73.432211 239.575352 
L 73.432241 239.575352 
L 73.4324 239.575319 
L 73.432431 239.575319 
L 73.432578 239.575292 
L 73.432611 239.575292 
L 73.432746 239.575268 
L 73.432781 239.575268 
L 73.432905 239.575249 
L 73.432943 239.575249 
L 73.433054 239.575233 
L 73.433096 239.575233 
L 73.433195 239.575221 
L 73.433241 239.575221 
L 73.433328 239.575211 
L 73.43338 239.575211 
L 73.433453 239.575205 
L 73.433514 239.575205 
L 73.433571 239.5752 
L 73.433645 239.5752 
L 73.433681 239.575198 
L 73.433777 239.575198 
L 73.433785 239.575198 
L 104.382781 239.575198 
L 104.382781 239.575198 
L 104.382783 239.575199 
L 104.382894 239.575199 
L 104.382894 239.575199 
L 104.382898 239.575202 
L 104.382999 239.575202 
L 104.382999 239.575202 
L 104.383005 239.575205 
L 104.383005 239.575206 
L 104.383099 239.575206 
L 104.383099 239.575206 
L 104.383104 239.575209 
L 104.383104 239.57521 
L 104.383105 239.57521 
L 104.383192 239.575211 
L 104.383192 239.575211 
L 104.383197 239.575214 
L 104.383197 239.575215 
L 104.383198 239.575215 
L 104.38328 239.575217 
L 104.38328 239.575217 
L 104.383284 239.57522 
L 104.383284 239.575221 
L 104.383285 239.575221 
L 104.383362 239.575224 
L 104.383362 239.575224 
L 104.383366 239.575227 
L 104.383366 239.575228 
L 104.383367 239.575228 
L 104.383439 239.575232 
L 104.383439 239.575232 
L 104.383443 239.575235 
L 104.383443 239.575235 
L 104.383444 239.575235 
L 104.383512 239.57524 
L 104.383512 239.57524 
L 104.383515 239.575243 
L 104.383515 239.575244 
L 104.383516 239.575244 
L 104.38358 239.575249 
L 104.38358 239.575249 
L 104.383583 239.575252 
L 104.383583 239.575252 
L 104.383583 239.575252 
L 104.383643 239.575259 
L 104.383643 239.575259 
L 104.383646 239.575261 
L 104.383647 239.575262 
L 104.383647 239.575262 
L 104.383703 239.575268 
L 104.383703 239.575268 
L 104.383706 239.575271 
L 104.383706 239.575271 
L 104.383706 239.575271 
L 104.383759 239.575278 
L 104.383759 239.575278 
L 104.383762 239.575281 
L 104.383762 239.575281 
L 104.383762 239.575281 
L 104.383811 239.575288 
L 104.383811 239.575288 
L 104.383814 239.575291 
L 104.383814 239.575291 
L 104.383814 239.575291 
L 104.38386 239.575299 
L 104.383861 239.575299 
L 104.383863 239.575301 
L 104.383863 239.575301 
L 104.383863 239.575301 
L 104.383906 239.575309 
L 104.383906 239.575309 
L 104.383908 239.575311 
L 104.383908 239.575311 
L 104.383908 239.575311 
L 104.383949 239.57532 
L 104.383949 239.57532 
L 104.383951 239.575322 
L 104.383951 239.575322 
L 104.383989 239.57533 
L 104.383989 239.57533 
L 104.383991 239.575332 
L 104.383991 239.575332 
L 104.384027 239.57534 
L 104.384027 239.57534 
L 104.384028 239.575342 
L 104.384028 239.575342 
L 104.384062 239.575351 
L 104.384062 239.575351 
L 104.384063 239.575352 
L 104.384063 239.575353 
L 104.384094 239.575361 
L 104.384094 239.575361 
L 104.384096 239.575363 
L 104.384096 239.575363 
L 104.384125 239.575371 
L 104.384125 239.575371 
L 104.384126 239.575373 
L 104.384126 239.575373 
L 104.384153 239.575381 
L 104.384153 239.575381 
L 104.384154 239.575382 
L 104.384154 239.575382 
L 104.38418 239.575391 
L 104.38418 239.575391 
L 104.38418 239.575392 
L 104.38418 239.575392 
L 104.384204 239.5754 
L 104.384204 239.5754 
L 104.384205 239.575401 
L 104.384205 239.575402 
L 104.384227 239.575409 
L 104.384227 239.575409 
L 104.384228 239.575411 
L 104.384228 239.575411 
L 104.384248 239.575418 
L 104.384248 239.575419 
L 104.384249 239.57542 
L 104.384249 239.57542 
L 104.384268 239.575427 
L 104.384268 239.575427 
L 104.384269 239.575429 
L 104.384269 239.575429 
L 104.384287 239.575436 
L 104.384287 239.575436 
L 104.384287 239.575437 
L 104.384287 239.575437 
L 104.384304 239.575444 
L 104.384304 239.575444 
L 104.384304 239.575445 
L 104.384304 239.575446 
L 104.38432 239.575453 
L 104.38432 239.575453 
L 104.38432 239.575454 
L 104.38432 239.575454 
L 104.384334 239.57546 
L 104.384334 239.57546 
L 104.384335 239.575461 
L 104.384335 239.575461 
L 104.384348 239.575468 
L 104.384348 239.575468 
L 104.384348 239.575469 
L 104.384361 239.575475 
L 104.384361 239.575475 
L 104.384361 239.575476 
L 104.384373 239.575482 
L 104.384373 239.575482 
L 104.384373 239.575483 
L 104.384384 239.575489 
L 104.384384 239.575489 
L 104.384384 239.57549 
L 104.384394 239.575496 
L 104.384394 239.575496 
L 104.384394 239.575496 
L 104.384403 239.575502 
L 104.384403 239.575502 
L 104.384403 239.575502 
L 104.384412 239.575508 
L 104.384412 239.575508 
L 104.384412 239.575508 
L 104.38442 239.575513 
L 104.38442 239.575513 
L 104.38442 239.575514 
L 104.384427 239.575519 
L 104.384427 239.575519 
L 104.384427 239.575519 
L 104.384434 239.575524 
L 104.384434 239.575524 
L 104.384434 239.575525 
L 104.38444 239.575529 
L 104.38444 239.575529 
L 104.38444 239.57553 
L 104.384446 239.575534 
L 104.384446 239.575534 
L 104.384446 239.575535 
L 104.384446 239.860372 
L 104.384937 239.860738 
L 104.390957 239.877048 
L 104.392156 239.877909 
L 104.399003 239.895121 
L 104.400259 239.895987 
L 104.408005 239.914139 
L 104.409321 239.915011 
L 104.418046 239.934141 
L 104.419428 239.93502 
L 104.429217 239.955168 
L 104.430669 239.956054 
L 104.441614 239.977261 
L 104.443141 239.978157 
L 104.455338 240.000462 
L 104.456949 240.001368 
L 104.470501 240.024814 
L 104.472204 240.025732 
L 104.48722 240.05036 
L 104.489025 240.051292 
L 104.505624 240.077143 
L 104.507541 240.078092 
L 104.525847 240.105208 
L 104.527889 240.106176 
L 104.548035 240.1346 
L 104.550217 240.135588 
L 104.572343 240.165361 
L 104.574681 240.166372 
L 104.598937 240.197537 
L 104.601451 240.198574 
L 104.627996 240.231171 
L 104.630707 240.232237 
L 104.659709 240.266306 
L 104.662641 240.267403 
L 104.694278 240.302986 
L 104.697459 240.304116 
L 104.731921 240.341251 
L 104.73538 240.342417 
L 104.772868 240.381141 
L 104.776641 240.382345 
L 104.817365 240.422695 
L 104.821489 240.423938 
L 104.865675 240.465948 
L 104.870194 240.467232 
L 104.918078 240.510935 
L 104.923039 240.51226 
L 104.974871 240.557686 
L 104.980328 240.559051 
L 105.03638 240.606234 
L 105.042383 240.607635 
L 105.102938 240.656603 
L 105.109545 240.658036 
L 105.174901 240.708812 
L 105.182181 240.710272 
L 105.252651 240.762875 
L 105.26068 240.764355 
L 105.336594 240.818798 
L 105.345456 240.820291 
L 105.427163 240.876584 
L 105.43695 240.878078 
L 105.524817 240.936226 
L 105.535629 240.937707 
L 105.630043 240.997709 
L 105.641989 240.999159 
L 105.74336 241.061008 
L 105.756559 241.062405 
L 105.865316 241.126087 
L 105.879899 241.127406 
L 105.996495 241.1929 
L 106.012602 241.19411 
L 106.137514 241.261384 
L 106.155298 241.262449 
L 106.28903 241.331466 
L 106.308656 241.332343 
L 106.451737 241.403053 
L 106.473383 241.403691 
L 106.62637 241.476036 
L 106.650228 241.476378 
L 106.813661 241.550264 
L 106.839987 241.550264 
L 107.014086 241.625438 
L 107.043366 241.625438 
L 107.229149 241.70197 
L 107.26112 241.70197 
L 107.459166 241.779708 
L 107.494156 241.779708 
L 107.57791 241.81099 
L 109.26606 241.602408 
L 109.38927 241.523652 
L 111.304958 241.257071 
L 111.494826 241.257071 
L 111.607655 241.181973 
L 113.633919 240.868161 
L 113.814128 240.868161 
L 113.926366 240.790389 
L 116.011811 240.434369 
L 116.136825 240.344201 
L 118.341135 239.932646 
L 118.466754 239.838342 
L 120.494648 239.426981 
L 120.698944 239.267353 
L 122.840122 238.798067 
L 123.052482 238.625357 
L 125.598444 238.025319 
L 125.739346 237.906029 
L 128.353812 237.246138 
L 128.51669 237.102563 
L 131.030421 236.425511 
L 131.267743 236.207648 
L 133.917139 235.448526 
L 134.162973 235.213424 
L 136.954062 234.365008 
L 137.208462 234.111456 
L 140.147439 233.165979 
L 140.41043 232.892686 
L 143.503662 231.841805 
L 143.775229 231.547404 
L 147.029229 230.382162 
L 147.309326 230.065195 
L 150.730755 228.77598 
L 151.01929 228.434898 
L 154.786369 226.943539 
L 155.028291 226.644559 
L 158.805104 225.075736 
L 159.110045 224.681378 
L 163.075057 222.955387 
L 163.387851 222.531661 
L 167.548204 220.635823 
L 167.868531 220.180757 
L 172.322363 218.058174 
L 172.620783 217.613002 
L 177.193555 215.335808 
L 177.527679 214.81166 
L 182.317632 212.320997 
L 182.657845 211.758848 
L 187.672322 209.038117 
L 188.017953 208.435476 
L 193.26428 205.466939 
L 193.614546 204.821166 
L 199.100004 201.58588 
L 199.454 200.894182 
L 205.185785 197.371923 
L 205.542469 196.631341 
L 211.527652 192.800527 
L 211.885836 192.007934 
L 218.131425 187.845471 
L 218.489718 186.997652 
L 225.013748 182.471113 
L 225.360045 181.591446 
L 232.158862 176.681282 
L 232.5016 175.742467 
L 239.57861 170.422708 
L 239.918622 169.413161 
L 247.277534 163.655712 
L 247.614722 162.563799 
L 255.26244 156.335844 
L 255.592784 155.160551 
L 263.537124 148.425836 
L 263.854863 147.172809 
L 272.09989 139.895335 
L 272.402069 138.559986 
L 280.951672 130.70094 
L 281.234442 129.281355 
L 290.089855 120.801151 
L 290.350816 119.286192 
L 299.514121 110.141005 
L 299.74867 108.528542 
L 299.748678 108.528534 
L 299.748685 108.528526 
L 309.220175 98.672459 
L 309.423964 96.956798 
L 309.423964 96.956798 
L 309.423964 96.956798 
L 309.423972 96.956789 
L 319.202734 86.341046 
L 319.370966 84.516382 
L 319.370966 84.516382 
L 319.370966 84.516382 
L 319.370966 84.516381 
L 319.370966 84.516381 
L 329.454631 73.089206 
L 329.582059 71.149393 
L 329.582059 71.149393 
L 329.582059 71.149393 
L 329.582059 71.149393 
L 339.966652 58.855887 
L 340.047531 56.794486 
L 340.047531 56.794486 
L 340.047531 56.794486 
L 350.727301 43.576426 
L 350.755353 41.386692 
L 350.755353 41.386692 
L 363.728923 24.583786 
L 363.728931 24.583778 
L 363.729631 24.58338 
L 363.742471 24.576242 
L 363.78189 24.566293 
L 365.701097 24.097818 
L 367.285081 24.097818 
L 431.065324 24.566293 
L 431.065325 24.566293 
L 431.065353 24.566308 
L 431.066667 24.567634 
L 431.076094 24.577356 
L 431.108943 24.651978 
L 431.727636 26.105201 
L 431.727636 28.809585 
L 431.108943 77.103999 
L 431.108943 77.104 
L 418.135374 93.906905 
L 418.135366 93.906913 
L 418.134665 93.907311 
L 418.121826 93.914449 
L 418.082406 93.924398 
L 416.1632 94.392873 
L 415.990993 94.392873 
L 403.573903 109.761168 
L 403.573895 109.761177 
L 403.573887 109.761185 
L 403.573186 109.761583 
L 403.572517 109.761948 
L 403.56025 109.768485 
L 403.52083 109.778435 
L 403.483466 109.787241 
L 401.664735 110.200975 
L 401.531895 110.200975 
L 389.468821 124.481502 
L 389.468813 124.481511 
L 389.468805 124.481519 
L 389.468798 124.481526 
L 389.468097 124.481924 
L 389.467427 124.482289 
L 389.466788 124.482623 
L 389.455075 124.488604 
L 389.415655 124.498553 
L 389.378291 124.507359 
L 389.342891 124.515118 
L 387.620126 124.878743 
L 387.524365 124.878743 
L 375.821669 138.140664 
L 375.821661 138.140672 
L 375.821653 138.14068 
L 375.821646 138.140688 
L 375.821639 138.140694 
L 375.820938 138.141092 
L 375.820268 138.141457 
L 375.819629 138.141791 
L 375.819018 138.142096 
L 375.807841 138.147561 
L 375.768421 138.15751 
L 375.731057 138.166316 
L 375.695657 138.174075 
L 375.662132 138.180876 
L 374.030973 138.498688 
L 373.970137 138.498688 
L 362.63208 150.807189 
L 362.632072 150.807197 
L 362.632065 150.807205 
L 362.632058 150.807212 
L 362.632051 150.807218 
L 362.63135 150.807616 
L 362.63068 150.807981 
L 362.630041 150.808315 
L 362.62943 150.80862 
L 362.628848 150.808899 
L 362.618188 150.813884 
L 362.578768 150.823834 
L 362.541404 150.83264 
L 362.506004 150.840399 
L 362.472479 150.847199 
L 362.440743 150.853124 
L 360.896978 151.129107 
L 360.869039 151.129107 
L 349.89802 162.54559 
L 349.898012 162.545597 
L 349.898005 162.545604 
L 349.897998 162.545611 
L 349.897992 162.545617 
L 349.897291 162.546015 
L 349.896621 162.546379 
L 349.895981 162.546713 
L 349.895371 162.547019 
L 349.894788 162.547297 
L 349.894233 162.547551 
L 349.884071 162.552094 
L 349.844652 162.562043 
L 349.807288 162.570849 
L 349.771888 162.578608 
L 349.738363 162.585409 
L 349.706627 162.591334 
L 349.676598 162.59646 
L 348.219859 162.8337 
L 337.615982 173.416611 
L 337.615281 173.417009 
L 337.614612 173.417374 
L 337.613972 173.417708 
L 337.613361 173.418013 
L 337.612779 173.418292 
L 337.612223 173.418546 
L 337.611694 173.418777 
L 337.602013 173.422909 
L 337.562594 173.432859 
L 337.52523 173.441665 
L 337.489829 173.449423 
L 337.456305 173.456224 
L 337.424569 173.462149 
L 337.39454 173.467276 
L 337.366138 173.471674 
L 336.023192 173.669192 
L 325.781097 183.477324 
L 325.780396 183.477722 
L 325.779726 183.478087 
L 325.779086 183.478421 
L 325.778476 183.478726 
L 325.777893 183.479005 
L 325.777338 183.479259 
L 325.776808 183.47949 
L 325.776304 183.479701 
L 325.767087 183.483453 
L 325.727667 183.493403 
L 325.690303 183.502209 
L 325.654903 183.509968 
L 325.621378 183.516768 
L 325.589642 183.522693 
L 325.559613 183.52782 
L 325.531212 183.532218 
L 325.50436 183.535955 
L 324.271898 183.697927 
L 314.387408 192.784041 
L 314.378635 192.787442 
L 314.339215 192.797392 
L 314.301851 192.806198 
L 314.266451 192.813957 
L 314.232926 192.820757 
L 314.201191 192.826683 
L 314.171162 192.831809 
L 314.14276 192.836208 
L 314.115908 192.839944 
L 314.090532 192.84308 
L 312.953161 192.974871 
L 303.427957 201.382292 
L 303.419612 201.38537 
L 303.380193 201.395319 
L 303.342829 201.404125 
L 303.307428 201.411884 
L 303.273903 201.418685 
L 303.242168 201.42461 
L 303.212139 201.429736 
L 303.183737 201.434135 
L 303.156886 201.437871 
L 303.13151 201.441007 
L 303.107538 201.443597 
L 302.064737 201.548315 
L 292.894937 209.321899 
L 292.887004 209.324678 
L 292.847584 209.334628 
L 292.81022 209.343434 
L 292.77482 209.351193 
L 292.741295 209.357993 
L 292.709559 209.363918 
L 292.67953 209.369045 
L 292.651129 209.373444 
L 292.624277 209.37718 
L 292.598901 209.380316 
L 292.574929 209.382906 
L 292.552294 209.385003 
L 291.598183 209.466148 
L 282.779817 216.647426 
L 282.772277 216.649929 
L 282.732858 216.659879 
L 282.695494 216.668685 
L 282.660094 216.676444 
L 282.626569 216.683244 
L 282.594833 216.689169 
L 282.564804 216.694296 
L 282.536403 216.698694 
L 282.509551 216.702431 
L 282.484175 216.705566 
L 282.460203 216.708157 
L 282.437568 216.710254 
L 282.416203 216.711906 
L 281.555778 216.771916 
L 273.073454 223.408297 
L 273.066293 223.410547 
L 273.026873 223.420497 
L 272.989509 223.429303 
L 272.954109 223.437062 
L 272.920584 223.443862 
L 272.888849 223.449787 
L 272.85882 223.454914 
L 272.830418 223.459313 
L 272.803566 223.463049 
L 272.77819 223.466185 
L 271.925383 223.512662 
L 263.766201 229.645885 
L 263.759403 229.647901 
L 263.719983 229.657851 
L 263.682619 229.666657 
L 263.647219 229.674415 
L 263.613694 229.681216 
L 263.581958 229.687141 
L 262.697806 229.721885 
L 254.847997 235.391085 
L 254.841546 235.392887 
L 254.802126 235.402836 
L 254.764762 235.411643 
L 253.894674 235.432634 
L 253.860811 235.432634 
L 246.308453 240.672653 
L 246.302334 240.674257 
L 245.482558 240.681614 
L 245.375648 240.681614 
L 238.136928 245.505962 
L 238.131126 245.507385 
L 237.24922 245.507385 
L 230.32328 249.940331 
L 230.317782 249.941588 
L 229.467618 249.941588 
L 222.856546 254.004182 
L 222.851338 254.005287 
L 222.030912 254.005287 
L 215.725631 257.724099 
L 215.720699 257.725066 
L 214.928099 257.725066 
L 208.919431 261.124959 
L 208.914763 261.125799 
L 208.148154 261.125799 
L 202.426873 264.230024 
L 202.422457 264.230748 
L 201.680078 264.230748 
L 196.236955 267.061044 
L 196.23278 267.061663 
L 195.512933 267.061663 
L 190.33878 269.638339 
L 190.334833 269.638863 
L 189.697745 269.638863 
L 184.78345 271.98089 
L 184.77972 271.981327 
L 184.100055 271.981327 
L 179.43662 274.106415 
L 179.433098 274.106772 
L 178.771164 274.106772 
L 174.349735 276.031444 
L 174.346409 276.031731 
L 173.700671 276.031731 
L 169.512566 277.771398 
L 169.509427 277.77162 
L 168.994876 277.77162 
L 165.031612 279.340647 
L 165.028652 279.340812 
L 164.410751 279.340812 
L 160.664073 280.752582 
L 160.661281 280.752695 
L 160.055014 280.752695 
L 156.516915 282.019672 
L 156.514283 282.019738 
L 155.918094 282.019738 
L 152.580844 283.153521 
L 152.578364 283.153546 
L 151.990652 283.153546 
L 148.846822 284.164924 
L 148.263551 284.164924 
L 145.306076 285.063917 
L 144.727875 285.063917 
L 141.950094 285.859824 
L 141.375051 285.859824 
L 138.770628 286.561304 
L 138.361183 286.561304 
L 135.92423 287.17639 
L 135.55549 287.17639 
L 133.280627 287.712535 
L 132.70146 287.712535 
L 130.583898 288.176645 
L 129.997717 288.176645 
L 128.033363 288.575116 
L 127.650263 288.575116 
L 125.835878 288.913871 
L 125.429007 288.913871 
L 123.762425 289.198384 
L 123.548867 289.198384 
L 122.029331 289.433718 
L 121.788361 289.433718 
L 120.41704 289.624547 
L 119.898608 289.624547 
L 118.679432 289.775184 
L 118.342006 289.775184 
L 117.283101 289.889608 
L 117.118139 289.889608 
L 116.234437 289.97148 
L 115.724246 289.97148 
L 115.042663 290.024175 
L 114.375098 290.024175 
L 113.946055 290.050793 
L 112.734432 290.050793 
L 112.662044 290.054182 
L 87.484004 290.054182 
L 87.483212 290.053965 
L 87.454751 290.036956 
L 86.098928 290.036956 
L 86.098188 290.036741 
L 86.041603 290.001512 
L 84.796263 290.001512 
L 84.795571 290.001298 
L 84.723756 289.954733 
L 84.719951 289.950042 
L 83.571599 289.950042 
L 83.570953 289.949831 
L 83.504492 289.904963 
L 83.500121 289.899325 
L 83.489511 289.899325 
L 82.42073 289.884554 
L 82.420127 289.884346 
L 82.358665 289.841151 
L 82.354873 289.836028 
L 82.345619 289.836028 
L 81.339648 289.806878 
L 81.339086 289.806674 
L 81.282289 289.765126 
L 81.279009 289.76048 
L 81.271009 289.76048 
L 80.324535 289.718687 
L 80.324011 289.718487 
L 80.271566 289.678556 
L 80.268738 289.67435 
L 80.261895 289.67435 
L 79.371757 289.621501 
L 79.371268 289.621305 
L 79.32288 289.582959 
L 79.320451 289.579159 
L 79.314672 289.579159 
L 78.477855 289.516703 
L 78.477399 289.516511 
L 78.432792 289.479716 
L 78.430713 289.476291 
L 78.425912 289.476291 
L 77.639538 289.40555 
L 77.639114 289.405363 
L 77.598028 289.370081 
L 77.596256 289.367001 
L 77.592353 289.367001 
L 76.853682 289.289178 
L 76.853287 289.288996 
L 76.815479 289.25519 
L 76.813976 289.252427 
L 76.810894 289.252427 
L 76.117314 289.168617 
L 76.116946 289.16844 
L 76.082188 289.136069 
L 76.08092 289.133599 
L 76.078586 289.133599 
L 75.427613 289.044794 
L 75.427271 289.044622 
L 75.395349 289.013647 
L 75.394285 289.011445 
L 75.392633 289.011445 
L 74.781901 288.918545 
L 74.781584 288.918378 
L 74.752297 288.888757 
L 74.75141 288.886802 
L 74.750377 288.886802 
L 74.177636 288.790619 
L 74.177342 288.790458 
L 74.150503 288.76215 
L 74.149769 288.76042 
L 74.149296 288.76042 
L 73.61241 288.661689 
L 73.612136 288.661533 
L 73.58757 288.634497 
L 73.586965 288.632967 
L 73.083936 288.532354 
L 73.083683 288.532203 
L 73.061224 288.506396 
L 73.060693 288.504948 
L 72.590051 288.403147 
L 72.589816 288.403001 
L 72.569311 288.378381 
L 72.568842 288.376995 
L 72.128704 288.27454 
L 72.128487 288.2744 
L 72.109792 288.250926 
L 72.109375 288.249583 
L 71.697955 288.146951 
L 71.697753 288.146815 
L 71.680735 288.124446 
L 71.680363 288.123132 
L 71.295965 288.020744 
L 71.295779 288.020614 
L 71.280311 287.999309 
L 71.27998 287.998011 
L 70.920999 287.896239 
L 70.920827 287.896114 
L 70.906793 287.875833 
L 70.906498 287.87454 
L 70.571412 287.773713 
L 70.571254 287.773593 
L 70.558544 287.754296 
L 70.558284 287.753001 
L 70.245653 287.653404 
L 70.245507 287.653288 
L 70.234019 287.634938 
L 70.233793 287.633633 
L 69.942255 287.535514 
L 69.94212 287.535402 
L 69.93176 287.517961 
L 69.931566 287.51664 
L 69.659831 287.420213 
L 69.659707 287.420107 
L 69.650386 287.403536 
L 69.650225 287.402197 
L 69.397075 287.307645 
L 69.396961 287.307543 
L 69.388597 287.291807 
L 69.388469 287.290447 
L 69.152753 287.197923 
L 69.152647 287.197825 
L 69.145163 287.18289 
L 69.145071 287.181507 
L 68.9257 287.091139 
L 68.925603 287.091046 
L 68.918928 287.076876 
L 68.918871 287.075471 
L 68.71482 286.987364 
L 68.714731 286.987275 
L 68.708798 286.973838 
L 68.708781 286.972659 
L 68.518972 286.886849 
L 68.51889 286.886763 
L 68.513638 286.874027 
L 68.513638 286.873316 
L 68.337078 286.789824 
L 68.337003 286.789742 
L 68.332375 286.777675 
L 68.332375 286.777373 
L 68.168246 286.69626 
L 68.168177 286.696182 
L 68.164146 286.684828 
L 68.011634 286.606119 
L 68.011572 286.606044 
L 68.008186 286.595688 
L 67.866451 286.519353 
L 67.866394 286.519282 
L 67.863571 286.509839 
L 67.731951 286.435907 
L 67.7319 286.435839 
L 67.729565 286.427234 
L 67.607434 286.355721 
L 67.607387 286.355657 
L 67.605475 286.347816 
L 67.492239 286.278728 
L 67.492197 286.278667 
L 67.490649 286.271524 
L 67.385747 286.204857 
L 67.385709 286.204798 
L 67.384474 286.198291 
L 67.287375 286.134033 
L 67.28734 286.133978 
L 67.286375 286.128048 
L 67.196575 286.066179 
L 67.196543 286.066126 
L 67.195808 286.060721 
L 67.112833 286.001214 
L 67.112804 286.001164 
L 67.112265 285.996235 
L 67.035666 285.939057 
L 67.03564 285.93901 
L 67.035268 285.93451 
L 66.964622 285.879624 
L 66.964599 285.879579 
L 66.964368 285.875469 
L 66.899276 285.822832 
L 66.899256 285.822789 
L 66.899143 285.819029 
L 66.83923 285.768595 
L 66.839212 285.768554 
L 66.8392 285.765113 
L 66.78411 285.716831 
L 66.784094 285.716792 
L 66.784094 285.713576 
L 66.733565 285.667458 
L 66.733551 285.667422 
L 66.733551 285.664397 
L 66.687268 285.620393 
L 66.687255 285.620358 
L 66.687255 285.617504 
L 66.644913 285.575551 
L 66.644902 285.575518 
L 66.644902 285.572814 
L 66.606213 285.53285 
L 66.606204 285.532819 
L 66.606204 285.530248 
L 66.570903 285.492209 
L 66.570895 285.49218 
L 66.570895 285.489723 
L 66.53873 285.453548 
L 66.538723 285.45352 
L 66.538723 285.451163 
L 66.509462 285.416789 
L 66.509456 285.416763 
L 66.509456 285.41449 
L 66.482881 285.381855 
L 66.482876 285.381831 
L 66.482876 285.379629 
L 66.458782 285.348672 
L 66.458778 285.348649 
L 66.458778 285.346504 
L 66.436976 285.317167 
L 66.436973 285.317145 
L 66.436973 285.315045 
L 66.417286 285.287268 
L 66.417284 285.287247 
L 66.417284 285.28518 
L 66.399547 285.258906 
L 66.399545 285.258887 
L 66.399545 285.256841 
L 66.383604 285.232015 
L 66.383603 285.231997 
L 66.383603 285.229962 
L 66.369316 285.20653 
L 66.369315 285.206513 
L 66.369315 285.204477 
L 66.356548 285.182388 
L 66.356548 285.182371 
L 66.356548 285.180323 
L 66.345176 285.159527 
L 66.345176 285.157439 
L 66.335087 285.13789 
L 66.335087 285.135766 
L 66.326172 285.117419 
L 66.326172 285.115246 
L 66.318333 285.098059 
L 66.318333 285.095823 
L 66.311478 285.079758 
L 66.311478 285.077443 
L 66.30552 285.062466 
L 66.30552 285.060053 
L 66.300381 285.046132 
L 66.300381 285.043601 
z
" clip-path="url(#pce44e0b14a)" style="fill: #4596ff; stroke: #4596ff; stroke-width: 0.5; stroke-linejoin: miter"/>
   </g>
   <g id="matplotlib.axis_1">
    <g id="xtick_1">
     <g id="line2d_1">
      <defs>
       <path id="m66991ebfd9" d="M 0 0 
L 0 3.5 
" style="stroke: #000000; stroke-width: 0.8"/>
      </defs>
      <g>
       <use xlink:href="#m66991ebfd9" x="68.942609" y="303.352" style="stroke: #000000; stroke-width: 0.8"/>
      </g>
     </g>
     <g id="text_1">
      <!-- 0.0 -->
      <g transform="translate(60.991047 317.950438) scale(0.1 -0.1)">
       <defs>
        <path id="DejaVuSans-30" d="M 2034 4250 
Q 1547 4250 1301 3770 
Q 1056 3291 1056 2328 
Q 1056 1369 1301 889 
Q 1547 409 2034 409 
Q 2525 409 2770 889 
Q 3016 1369 3016 2328 
Q 3016 3291 2770 3770 
Q 2525 4250 2034 4250 
z
M 2034 4750 
Q 2819 4750 3233 4129 
Q 3647 3509 3647 2328 
Q 3647 1150 3233 529 
Q 2819 -91 2034 -91 
Q 1250 -91 836 529 
Q 422 1150 422 2328 
Q 422 3509 836 4129 
Q 1250 4750 2034 4750 
z
" transform="scale(0.015625)"/>
        <path id="DejaVuSans-2e" d="M 684 794 
L 1344 794 
L 1344 0 
L 684 0 
L 684 794 
z
" transform="scale(0.015625)"/>
       </defs>
       <use xlink:href="#DejaVuSans-30"/>
       <use xlink:href="#DejaVuSans-2e" transform="translate(63.623047 0)"/>
       <use xlink:href="#DejaVuSans-30" transform="translate(95.410156 0)"/>
      </g>
     </g>
    </g>
    <g id="xtick_2">
     <g id="line2d_2">
      <g>
       <use xlink:href="#m66991ebfd9" x="134.642059" y="303.352" style="stroke: #000000; stroke-width: 0.8"/>
      </g>
     </g>
     <g id="text_2">
      <!-- 0.2 -->
      <g transform="translate(126.690496 317.950438) scale(0.1 -0.1)">
       <defs>
        <path id="DejaVuSans-32" d="M 1228 531 
L 3431 531 
L 3431 0 
L 469 0 
L 469 531 
Q 828 903 1448 1529 
Q 2069 2156 2228 2338 
Q 2531 2678 2651 2914 
Q 2772 3150 2772 3378 
Q 2772 3750 2511 3984 
Q 2250 4219 1831 4219 
Q 1534 4219 1204 4116 
Q 875 4013 500 3803 
L 500 4441 
Q 881 4594 1212 4672 
Q 1544 4750 1819 4750 
Q 2544 4750 2975 4387 
Q 3406 4025 3406 3419 
Q 3406 3131 3298 2873 
Q 3191 2616 2906 2266 
Q 2828 2175 2409 1742 
Q 1991 1309 1228 531 
z
" transform="scale(0.015625)"/>
       </defs>
       <use xlink:href="#DejaVuSans-30"/>
       <use xlink:href="#DejaVuSans-2e" transform="translate(63.623047 0)"/>
       <use xlink:href="#DejaVuSans-32" transform="translate(95.410156 0)"/>
      </g>
     </g>
    </g>
    <g id="xtick_3">
     <g id="line2d_3">
      <g>
       <use xlink:href="#m66991ebfd9" x="200.341509" y="303.352" style="stroke: #000000; stroke-width: 0.8"/>
      </g>
     </g>
     <g id="text_3">
      <!-- 0.4 -->
      <g transform="translate(192.389946 317.950438) scale(0.1 -0.1)">
       <defs>
        <path id="DejaVuSans-34" d="M 2419 4116 
L 825 1625 
L 2419 1625 
L 2419 4116 
z
M 2253 4666 
L 3047 4666 
L 3047 1625 
L 3713 1625 
L 3713 1100 
L 3047 1100 
L 3047 0 
L 2419 0 
L 2419 1100 
L 313 1100 
L 313 1709 
L 2253 4666 
z
" transform="scale(0.015625)"/>
       </defs>
       <use xlink:href="#DejaVuSans-30"/>
       <use xlink:href="#DejaVuSans-2e" transform="translate(63.623047 0)"/>
       <use xlink:href="#DejaVuSans-34" transform="translate(95.410156 0)"/>
      </g>
     </g>
    </g>
    <g id="xtick_4">
     <g id="line2d_4">
      <g>
       <use xlink:href="#m66991ebfd9" x="266.040958" y="303.352" style="stroke: #000000; stroke-width: 0.8"/>
      </g>
     </g>
     <g id="text_4">
      <!-- 0.6 -->
      <g transform="translate(258.089396 317.950438) scale(0.1 -0.1)">
       <defs>
        <path id="DejaVuSans-36" d="M 2113 2584 
Q 1688 2584 1439 2293 
Q 1191 2003 1191 1497 
Q 1191 994 1439 701 
Q 1688 409 2113 409 
Q 2538 409 2786 701 
Q 3034 994 3034 1497 
Q 3034 2003 2786 2293 
Q 2538 2584 2113 2584 
z
M 3366 4563 
L 3366 3988 
Q 3128 4100 2886 4159 
Q 2644 4219 2406 4219 
Q 1781 4219 1451 3797 
Q 1122 3375 1075 2522 
Q 1259 2794 1537 2939 
Q 1816 3084 2150 3084 
Q 2853 3084 3261 2657 
Q 3669 2231 3669 1497 
Q 3669 778 3244 343 
Q 2819 -91 2113 -91 
Q 1303 -91 875 529 
Q 447 1150 447 2328 
Q 447 3434 972 4092 
Q 1497 4750 2381 4750 
Q 2619 4750 2861 4703 
Q 3103 4656 3366 4563 
z
" transform="scale(0.015625)"/>
       </defs>
       <use xlink:href="#DejaVuSans-30"/>
       <use xlink:href="#DejaVuSans-2e" transform="translate(63.623047 0)"/>
       <use xlink:href="#DejaVuSans-36" transform="translate(95.410156 0)"/>
      </g>
     </g>
    </g>
    <g id="xtick_5">
     <g id="line2d_5">
      <g>
       <use xlink:href="#m66991ebfd9" x="331.740408" y="303.352" style="stroke: #000000; stroke-width: 0.8"/>
      </g>
     </g>
     <g id="text_5">
      <!-- 0.8 -->
      <g transform="translate(323.788845 317.950438) scale(0.1 -0.1)">
       <defs>
        <path id="DejaVuSans-38" d="M 2034 2216 
Q 1584 2216 1326 1975 
Q 1069 1734 1069 1313 
Q 1069 891 1326 650 
Q 1584 409 2034 409 
Q 2484 409 2743 651 
Q 3003 894 3003 1313 
Q 3003 1734 2745 1975 
Q 2488 2216 2034 2216 
z
M 1403 2484 
Q 997 2584 770 2862 
Q 544 3141 544 3541 
Q 544 4100 942 4425 
Q 1341 4750 2034 4750 
Q 2731 4750 3128 4425 
Q 3525 4100 3525 3541 
Q 3525 3141 3298 2862 
Q 3072 2584 2669 2484 
Q 3125 2378 3379 2068 
Q 3634 1759 3634 1313 
Q 3634 634 3220 271 
Q 2806 -91 2034 -91 
Q 1263 -91 848 271 
Q 434 634 434 1313 
Q 434 1759 690 2068 
Q 947 2378 1403 2484 
z
M 1172 3481 
Q 1172 3119 1398 2916 
Q 1625 2713 2034 2713 
Q 2441 2713 2670 2916 
Q 2900 3119 2900 3481 
Q 2900 3844 2670 4047 
Q 2441 4250 2034 4250 
Q 1625 4250 1398 4047 
Q 1172 3844 1172 3481 
z
" transform="scale(0.015625)"/>
       </defs>
       <use xlink:href="#DejaVuSans-30"/>
       <use xlink:href="#DejaVuSans-2e" transform="translate(63.623047 0)"/>
       <use xlink:href="#DejaVuSans-38" transform="translate(95.410156 0)"/>
      </g>
     </g>
    </g>
    <g id="xtick_6">
     <g id="line2d_6">
      <g>
       <use xlink:href="#m66991ebfd9" x="397.439857" y="303.352" style="stroke: #000000; stroke-width: 0.8"/>
      </g>
     </g>
     <g id="text_6">
      <!-- 1.0 -->
      <g transform="translate(389.488295 317.950438) scale(0.1 -0.1)">
       <defs>
        <path id="DejaVuSans-31" d="M 794 531 
L 1825 531 
L 1825 4091 
L 703 3866 
L 703 4441 
L 1819 4666 
L 2450 4666 
L 2450 531 
L 3481 531 
L 3481 0 
L 794 0 
L 794 531 
z
" transform="scale(0.015625)"/>
       </defs>
       <use xlink:href="#DejaVuSans-31"/>
       <use xlink:href="#DejaVuSans-2e" transform="translate(63.623047 0)"/>
       <use xlink:href="#DejaVuSans-30" transform="translate(95.410156 0)"/>
      </g>
     </g>
    </g>
    <g id="text_7">
     <!-- $x_{3}$ -->
     <g transform="translate(243.654 331.628562) scale(0.1 -0.1)">
      <defs>
       <path id="DejaVuSans-Oblique-78" d="M 3841 3500 
L 2234 1784 
L 3219 0 
L 2559 0 
L 1819 1388 
L 531 0 
L -166 0 
L 1556 1844 
L 641 3500 
L 1300 3500 
L 1972 2234 
L 3144 3500 
L 3841 3500 
z
" transform="scale(0.015625)"/>
       <path id="DejaVuSans-33" d="M 2597 2516 
Q 3050 2419 3304 2112 
Q 3559 1806 3559 1356 
Q 3559 666 3084 287 
Q 2609 -91 1734 -91 
Q 1441 -91 1130 -33 
Q 819 25 488 141 
L 488 750 
Q 750 597 1062 519 
Q 1375 441 1716 441 
Q 2309 441 2620 675 
Q 2931 909 2931 1356 
Q 2931 1769 2642 2001 
Q 2353 2234 1838 2234 
L 1294 2234 
L 1294 2753 
L 1863 2753 
Q 2328 2753 2575 2939 
Q 2822 3125 2822 3475 
Q 2822 3834 2567 4026 
Q 2313 4219 1838 4219 
Q 1578 4219 1281 4162 
Q 984 4106 628 3988 
L 628 4550 
Q 988 4650 1302 4700 
Q 1616 4750 1894 4750 
Q 2613 4750 3031 4423 
Q 3450 4097 3450 3541 
Q 3450 3153 3228 2886 
Q 3006 2619 2597 2516 
z
" transform="scale(0.015625)"/>
      </defs>
      <use xlink:href="#DejaVuSans-Oblique-78" transform="translate(0 0.3125)"/>
      <use xlink:href="#DejaVuSans-33" transform="translate(59.179688 -16.09375) scale(0.7)"/>
     </g>
    </g>
   </g>
   <g id="matplotlib.axis_2">
    <g id="ytick_1">
     <g id="line2d_7">
      <defs>
       <path id="mf6ee1cceee" d="M 0 0 
L -3.5 0 
" style="stroke: #000000; stroke-width: 0.8"/>
      </defs>
      <g>
       <use xlink:href="#mf6ee1cceee" x="48.008" y="299.50686" style="stroke: #000000; stroke-width: 0.8"/>
      </g>
     </g>
     <g id="text_8">
      <!-- 0.0 -->
      <g transform="translate(25.104875 303.306079) scale(0.1 -0.1)">
       <use xlink:href="#DejaVuSans-30"/>
       <use xlink:href="#DejaVuSans-2e" transform="translate(63.623047 0)"/>
       <use xlink:href="#DejaVuSans-30" transform="translate(95.410156 0)"/>
      </g>
     </g>
    </g>
    <g id="ytick_2">
     <g id="line2d_8">
      <g>
       <use xlink:href="#mf6ee1cceee" x="48.008" y="249.759222" style="stroke: #000000; stroke-width: 0.8"/>
      </g>
     </g>
     <g id="text_9">
      <!-- 0.2 -->
      <g transform="translate(25.104875 253.558441) scale(0.1 -0.1)">
       <use xlink:href="#DejaVuSans-30"/>
       <use xlink:href="#DejaVuSans-2e" transform="translate(63.623047 0)"/>
       <use xlink:href="#DejaVuSans-32" transform="translate(95.410156 0)"/>
      </g>
     </g>
    </g>
    <g id="ytick_3">
     <g id="line2d_9">
      <g>
       <use xlink:href="#mf6ee1cceee" x="48.008" y="200.011584" style="stroke: #000000; stroke-width: 0.8"/>
      </g>
     </g>
     <g id="text_10">
      <!-- 0.4 -->
      <g transform="translate(25.104875 203.810803) scale(0.1 -0.1)">
       <use xlink:href="#DejaVuSans-30"/>
       <use xlink:href="#DejaVuSans-2e" transform="translate(63.623047 0)"/>
       <use xlink:href="#DejaVuSans-34" transform="translate(95.410156 0)"/>
      </g>
     </g>
    </g>
    <g id="ytick_4">
     <g id="line2d_10">
      <g>
       <use xlink:href="#mf6ee1cceee" x="48.008" y="150.263946" style="stroke: #000000; stroke-width: 0.8"/>
      </g>
     </g>
     <g id="text_11">
      <!-- 0.6 -->
      <g transform="translate(25.104875 154.063165) scale(0.1 -0.1)">
       <use xlink:href="#DejaVuSans-30"/>
       <use xlink:href="#DejaVuSans-2e" transform="translate(63.623047 0)"/>
       <use xlink:href="#DejaVuSans-36" transform="translate(95.410156 0)"/>
      </g>
     </g>
    </g>
    <g id="ytick_5">
     <g id="line2d_11">
      <g>
       <use xlink:href="#mf6ee1cceee" x="48.008" y="100.516308" style="stroke: #000000; stroke-width: 0.8"/>
      </g>
     </g>
     <g id="text_12">
      <!-- 0.8 -->
      <g transform="translate(25.104875 104.315527) scale(0.1 -0.1)">
       <use xlink:href="#DejaVuSans-30"/>
       <use xlink:href="#DejaVuSans-2e" transform="translate(63.623047 0)"/>
       <use xlink:href="#DejaVuSans-38" transform="translate(95.410156 0)"/>
      </g>
     </g>
    </g>
    <g id="ytick_6">
     <g id="line2d_12">
      <g>
       <use xlink:href="#mf6ee1cceee" x="48.008" y="50.76867" style="stroke: #000000; stroke-width: 0.8"/>
      </g>
     </g>
     <g id="text_13">
      <!-- 1.0 -->
      <g transform="translate(25.104875 54.567889) scale(0.1 -0.1)">
       <use xlink:href="#DejaVuSans-31"/>
       <use xlink:href="#DejaVuSans-2e" transform="translate(63.623047 0)"/>
       <use xlink:href="#DejaVuSans-30" transform="translate(95.410156 0)"/>
      </g>
     </g>
    </g>
    <g id="text_14">
     <!-- $x_{4}$ -->
     <g transform="translate(19.025188 162.426) rotate(-90) scale(0.1 -0.1)">
      <use xlink:href="#DejaVuSans-Oblique-78" transform="translate(0 0.3125)"/>
      <use xlink:href="#DejaVuSans-34" transform="translate(59.179688 -16.09375) scale(0.7)"/>
     </g>
    </g>
   </g>
   <g id="patch_4">
    <path d="M 48.008 303.352 
L 48.008 10.8 
" style="fill: none; stroke: #000000; stroke-width: 0.8; stroke-linejoin: miter; stroke-linecap: square"/>
   </g>
   <g id="patch_5">
    <path d="M 450 303.352 
L 450 10.8 
" style="fill: none; stroke: #000000; stroke-width: 0.8; stroke-linejoin: miter; stroke-linecap: square"/>
   </g>
   <g id="patch_6">
    <path d="M 48.008 303.352 
L 450 303.352 
" style="fill: none; stroke: #000000; stroke-width: 0.8; stroke-linejoin: miter; stroke-linecap: square"/>
   </g>
   <g id="patch_7">
    <path d="M 48.008 10.8 
L 450 10.8 
" style="fill: none; stroke: #000000; stroke-width: 0.8; stroke-linejoin: miter; stroke-linecap: square"/>
   </g>
   <g id="legend_1">
    <g id="patch_8">
     <path d="M 55.008 62.834375 
L 157.492375 62.834375 
Q 159.492375 62.834375 159.492375 60.834375 
L 159.492375 17.8 
Q 159.492375 15.8 157.492375 15.8 
L 55.008 15.8 
Q 53.008 15.8 53.008 17.8 
L 53.008 60.834375 
Q 53.008 62.834375 55.008 62.834375 
z
" style="fill: #ffffff; opacity: 0.8; stroke: #cccccc; stroke-width: 0.5; stroke-linejoin: miter"/>
    </g>
    <g id="patch_9">
     <path d="M 57.008 27.398438 
L 77.008 27.398438 
L 77.008 20.398438 
L 57.008 20.398438 
z
" style="fill: #4596ff; stroke: #4596ff; stroke-width: 0.5; stroke-linejoin: miter"/>
    </g>
    <g id="text_15">
     <!-- Reachable set -->
     <g transform="translate(85.008 27.398438) scale(0.1 -0.1)">
      <defs>
       <path id="DejaVuSans-52" d="M 2841 2188 
Q 3044 2119 3236 1894 
Q 3428 1669 3622 1275 
L 4263 0 
L 3584 0 
L 2988 1197 
Q 2756 1666 2539 1819 
Q 2322 1972 1947 1972 
L 1259 1972 
L 1259 0 
L 628 0 
L 628 4666 
L 2053 4666 
Q 2853 4666 3247 4331 
Q 3641 3997 3641 3322 
Q 3641 2881 3436 2590 
Q 3231 2300 2841 2188 
z
M 1259 4147 
L 1259 2491 
L 2053 2491 
Q 2509 2491 2742 2702 
Q 2975 2913 2975 3322 
Q 2975 3731 2742 3939 
Q 2509 4147 2053 4147 
L 1259 4147 
z
" transform="scale(0.015625)"/>
       <path id="DejaVuSans-65" d="M 3597 1894 
L 3597 1613 
L 953 1613 
Q 991 1019 1311 708 
Q 1631 397 2203 397 
Q 2534 397 2845 478 
Q 3156 559 3463 722 
L 3463 178 
Q 3153 47 2828 -22 
Q 2503 -91 2169 -91 
Q 1331 -91 842 396 
Q 353 884 353 1716 
Q 353 2575 817 3079 
Q 1281 3584 2069 3584 
Q 2775 3584 3186 3129 
Q 3597 2675 3597 1894 
z
M 3022 2063 
Q 3016 2534 2758 2815 
Q 2500 3097 2075 3097 
Q 1594 3097 1305 2825 
Q 1016 2553 972 2059 
L 3022 2063 
z
" transform="scale(0.015625)"/>
       <path id="DejaVuSans-61" d="M 2194 1759 
Q 1497 1759 1228 1600 
Q 959 1441 959 1056 
Q 959 750 1161 570 
Q 1363 391 1709 391 
Q 2188 391 2477 730 
Q 2766 1069 2766 1631 
L 2766 1759 
L 2194 1759 
z
M 3341 1997 
L 3341 0 
L 2766 0 
L 2766 531 
Q 2569 213 2275 61 
Q 1981 -91 1556 -91 
Q 1019 -91 701 211 
Q 384 513 384 1019 
Q 384 1609 779 1909 
Q 1175 2209 1959 2209 
L 2766 2209 
L 2766 2266 
Q 2766 2663 2505 2880 
Q 2244 3097 1772 3097 
Q 1472 3097 1187 3025 
Q 903 2953 641 2809 
L 641 3341 
Q 956 3463 1253 3523 
Q 1550 3584 1831 3584 
Q 2591 3584 2966 3190 
Q 3341 2797 3341 1997 
z
" transform="scale(0.015625)"/>
       <path id="DejaVuSans-63" d="M 3122 3366 
L 3122 2828 
Q 2878 2963 2633 3030 
Q 2388 3097 2138 3097 
Q 1578 3097 1268 2742 
Q 959 2388 959 1747 
Q 959 1106 1268 751 
Q 1578 397 2138 397 
Q 2388 397 2633 464 
Q 2878 531 3122 666 
L 3122 134 
Q 2881 22 2623 -34 
Q 2366 -91 2075 -91 
Q 1284 -91 818 406 
Q 353 903 353 1747 
Q 353 2603 823 3093 
Q 1294 3584 2113 3584 
Q 2378 3584 2631 3529 
Q 2884 3475 3122 3366 
z
" transform="scale(0.015625)"/>
       <path id="DejaVuSans-68" d="M 3513 2113 
L 3513 0 
L 2938 0 
L 2938 2094 
Q 2938 2591 2744 2837 
Q 2550 3084 2163 3084 
Q 1697 3084 1428 2787 
Q 1159 2491 1159 1978 
L 1159 0 
L 581 0 
L 581 4863 
L 1159 4863 
L 1159 2956 
Q 1366 3272 1645 3428 
Q 1925 3584 2291 3584 
Q 2894 3584 3203 3211 
Q 3513 2838 3513 2113 
z
" transform="scale(0.015625)"/>
       <path id="DejaVuSans-62" d="M 3116 1747 
Q 3116 2381 2855 2742 
Q 2594 3103 2138 3103 
Q 1681 3103 1420 2742 
Q 1159 2381 1159 1747 
Q 1159 1113 1420 752 
Q 1681 391 2138 391 
Q 2594 391 2855 752 
Q 3116 1113 3116 1747 
z
M 1159 2969 
Q 1341 3281 1617 3432 
Q 1894 3584 2278 3584 
Q 2916 3584 3314 3078 
Q 3713 2572 3713 1747 
Q 3713 922 3314 415 
Q 2916 -91 2278 -91 
Q 1894 -91 1617 61 
Q 1341 213 1159 525 
L 1159 0 
L 581 0 
L 581 4863 
L 1159 4863 
L 1159 2969 
z
" transform="scale(0.015625)"/>
       <path id="DejaVuSans-6c" d="M 603 4863 
L 1178 4863 
L 1178 0 
L 603 0 
L 603 4863 
z
" transform="scale(0.015625)"/>
       <path id="DejaVuSans-20" transform="scale(0.015625)"/>
       <path id="DejaVuSans-73" d="M 2834 3397 
L 2834 2853 
Q 2591 2978 2328 3040 
Q 2066 3103 1784 3103 
Q 1356 3103 1142 2972 
Q 928 2841 928 2578 
Q 928 2378 1081 2264 
Q 1234 2150 1697 2047 
L 1894 2003 
Q 2506 1872 2764 1633 
Q 3022 1394 3022 966 
Q 3022 478 2636 193 
Q 2250 -91 1575 -91 
Q 1294 -91 989 -36 
Q 684 19 347 128 
L 347 722 
Q 666 556 975 473 
Q 1284 391 1588 391 
Q 1994 391 2212 530 
Q 2431 669 2431 922 
Q 2431 1156 2273 1281 
Q 2116 1406 1581 1522 
L 1381 1569 
Q 847 1681 609 1914 
Q 372 2147 372 2553 
Q 372 3047 722 3315 
Q 1072 3584 1716 3584 
Q 2034 3584 2315 3537 
Q 2597 3491 2834 3397 
z
" transform="scale(0.015625)"/>
       <path id="DejaVuSans-74" d="M 1172 4494 
L 1172 3500 
L 2356 3500 
L 2356 3053 
L 1172 3053 
L 1172 1153 
Q 1172 725 1289 603 
Q 1406 481 1766 481 
L 2356 481 
L 2356 0 
L 1766 0 
Q 1100 0 847 248 
Q 594 497 594 1153 
L 594 3053 
L 172 3053 
L 172 3500 
L 594 3500 
L 594 4494 
L 1172 4494 
z
" transform="scale(0.015625)"/>
      </defs>
      <use xlink:href="#DejaVuSans-52"/>
      <use xlink:href="#DejaVuSans-65" transform="translate(64.982422 0)"/>
      <use xlink:href="#DejaVuSans-61" transform="translate(126.505859 0)"/>
      <use xlink:href="#DejaVuSans-63" transform="translate(187.785156 0)"/>
      <use xlink:href="#DejaVuSans-68" transform="translate(242.765625 0)"/>
      <use xlink:href="#DejaVuSans-61" transform="translate(306.144531 0)"/>
      <use xlink:href="#DejaVuSans-62" transform="translate(367.423828 0)"/>
      <use xlink:href="#DejaVuSans-6c" transform="translate(430.900391 0)"/>
      <use xlink:href="#DejaVuSans-65" transform="translate(458.683594 0)"/>
      <use xlink:href="#DejaVuSans-20" transform="translate(520.207031 0)"/>
      <use xlink:href="#DejaVuSans-73" transform="translate(551.994141 0)"/>
      <use xlink:href="#DejaVuSans-65" transform="translate(604.09375 0)"/>
      <use xlink:href="#DejaVuSans-74" transform="translate(665.617188 0)"/>
     </g>
    </g>
    <g id="patch_10">
     <path d="M 57.008 42.076563 
L 77.008 42.076563 
L 77.008 35.076563 
L 57.008 35.076563 
z
" style="fill: #ffffff; opacity: 0.9; stroke: #000000; stroke-linejoin: miter"/>
    </g>
    <g id="text_16">
     <!-- Initial set -->
     <g transform="translate(85.008 42.076563) scale(0.1 -0.1)">
      <defs>
       <path id="DejaVuSans-49" d="M 628 4666 
L 1259 4666 
L 1259 0 
L 628 0 
L 628 4666 
z
" transform="scale(0.015625)"/>
       <path id="DejaVuSans-6e" d="M 3513 2113 
L 3513 0 
L 2938 0 
L 2938 2094 
Q 2938 2591 2744 2837 
Q 2550 3084 2163 3084 
Q 1697 3084 1428 2787 
Q 1159 2491 1159 1978 
L 1159 0 
L 581 0 
L 581 3500 
L 1159 3500 
L 1159 2956 
Q 1366 3272 1645 3428 
Q 1925 3584 2291 3584 
Q 2894 3584 3203 3211 
Q 3513 2838 3513 2113 
z
" transform="scale(0.015625)"/>
       <path id="DejaVuSans-69" d="M 603 3500 
L 1178 3500 
L 1178 0 
L 603 0 
L 603 3500 
z
M 603 4863 
L 1178 4863 
L 1178 4134 
L 603 4134 
L 603 4863 
z
" transform="scale(0.015625)"/>
      </defs>
      <use xlink:href="#DejaVuSans-49"/>
      <use xlink:href="#DejaVuSans-6e" transform="translate(29.492188 0)"/>
      <use xlink:href="#DejaVuSans-69" transform="translate(92.871094 0)"/>
      <use xlink:href="#DejaVuSans-74" transform="translate(120.654297 0)"/>
      <use xlink:href="#DejaVuSans-69" transform="translate(159.863281 0)"/>
      <use xlink:href="#DejaVuSans-61" transform="translate(187.646484 0)"/>
      <use xlink:href="#DejaVuSans-6c" transform="translate(248.925781 0)"/>
      <use xlink:href="#DejaVuSans-20" transform="translate(276.708984 0)"/>
      <use xlink:href="#DejaVuSans-73" transform="translate(308.496094 0)"/>
      <use xlink:href="#DejaVuSans-65" transform="translate(360.595703 0)"/>
      <use xlink:href="#DejaVuSans-74" transform="translate(422.119141 0)"/>
     </g>
    </g>
    <g id="line2d_13">
     <path d="M 57.008 53.254687 
L 67.008 53.254687 
L 77.008 53.254687 
" style="fill: none; stroke: #000000; stroke-opacity: 0.8; stroke-linecap: round"/>
    </g>
    <g id="text_17">
     <!-- Simulations -->
     <g transform="translate(85.008 56.754687) scale(0.1 -0.1)">
      <defs>
       <path id="DejaVuSans-53" d="M 3425 4513 
L 3425 3897 
Q 3066 4069 2747 4153 
Q 2428 4238 2131 4238 
Q 1616 4238 1336 4038 
Q 1056 3838 1056 3469 
Q 1056 3159 1242 3001 
Q 1428 2844 1947 2747 
L 2328 2669 
Q 3034 2534 3370 2195 
Q 3706 1856 3706 1288 
Q 3706 609 3251 259 
Q 2797 -91 1919 -91 
Q 1588 -91 1214 -16 
Q 841 59 441 206 
L 441 856 
Q 825 641 1194 531 
Q 1563 422 1919 422 
Q 2459 422 2753 634 
Q 3047 847 3047 1241 
Q 3047 1584 2836 1778 
Q 2625 1972 2144 2069 
L 1759 2144 
Q 1053 2284 737 2584 
Q 422 2884 422 3419 
Q 422 4038 858 4394 
Q 1294 4750 2059 4750 
Q 2388 4750 2728 4690 
Q 3069 4631 3425 4513 
z
" transform="scale(0.015625)"/>
       <path id="DejaVuSans-6d" d="M 3328 2828 
Q 3544 3216 3844 3400 
Q 4144 3584 4550 3584 
Q 5097 3584 5394 3201 
Q 5691 2819 5691 2113 
L 5691 0 
L 5113 0 
L 5113 2094 
Q 5113 2597 4934 2840 
Q 4756 3084 4391 3084 
Q 3944 3084 3684 2787 
Q 3425 2491 3425 1978 
L 3425 0 
L 2847 0 
L 2847 2094 
Q 2847 2600 2669 2842 
Q 2491 3084 2119 3084 
Q 1678 3084 1418 2786 
Q 1159 2488 1159 1978 
L 1159 0 
L 581 0 
L 581 3500 
L 1159 3500 
L 1159 2956 
Q 1356 3278 1631 3431 
Q 1906 3584 2284 3584 
Q 2666 3584 2933 3390 
Q 3200 3197 3328 2828 
z
" transform="scale(0.015625)"/>
       <path id="DejaVuSans-75" d="M 544 1381 
L 544 3500 
L 1119 3500 
L 1119 1403 
Q 1119 906 1312 657 
Q 1506 409 1894 409 
Q 2359 409 2629 706 
Q 2900 1003 2900 1516 
L 2900 3500 
L 3475 3500 
L 3475 0 
L 2900 0 
L 2900 538 
Q 2691 219 2414 64 
Q 2138 -91 1772 -91 
Q 1169 -91 856 284 
Q 544 659 544 1381 
z
M 1991 3584 
L 1991 3584 
z
" transform="scale(0.015625)"/>
       <path id="DejaVuSans-6f" d="M 1959 3097 
Q 1497 3097 1228 2736 
Q 959 2375 959 1747 
Q 959 1119 1226 758 
Q 1494 397 1959 397 
Q 2419 397 2687 759 
Q 2956 1122 2956 1747 
Q 2956 2369 2687 2733 
Q 2419 3097 1959 3097 
z
M 1959 3584 
Q 2709 3584 3137 3096 
Q 3566 2609 3566 1747 
Q 3566 888 3137 398 
Q 2709 -91 1959 -91 
Q 1206 -91 779 398 
Q 353 888 353 1747 
Q 353 2609 779 3096 
Q 1206 3584 1959 3584 
z
" transform="scale(0.015625)"/>
      </defs>
      <use xlink:href="#DejaVuSans-53"/>
      <use xlink:href="#DejaVuSans-69" transform="translate(63.476562 0)"/>
      <use xlink:href="#DejaVuSans-6d" transform="translate(91.259766 0)"/>
      <use xlink:href="#DejaVuSans-75" transform="translate(188.671875 0)"/>
      <use xlink:href="#DejaVuSans-6c" transform="translate(252.050781 0)"/>
      <use xlink:href="#DejaVuSans-61" transform="translate(279.833984 0)"/>
      <use xlink:href="#DejaVuSans-74" transform="translate(341.113281 0)"/>
      <use xlink:href="#DejaVuSans-69" transform="translate(380.322266 0)"/>
      <use xlink:href="#DejaVuSans-6f" transform="translate(408.105469 0)"/>
      <use xlink:href="#DejaVuSans-6e" transform="translate(469.287109 0)"/>
      <use xlink:href="#DejaVuSans-73" transform="translate(532.666016 0)"/>
     </g>
    </g>
   </g>
   <g id="patch_11">
    <path d="M 364.590132 75.642489 
L 430.289582 75.642489 
L 430.289582 25.894851 
L 364.590132 25.894851 
z
" clip-path="url(#pce44e0b14a)" style="fill: #ffffff; opacity: 0.9; stroke: #000000; stroke-linejoin: miter"/>
   </g>
   <g id="line2d_14">
    <path d="M 407.472572 65.087613 
L 393.277191 81.620851 
L 379.501574 96.981142 
L 366.15041 111.243313 
L 353.231626 124.481602 
L 340.748352 136.763993 
L 328.693367 148.148641 
L 317.059666 158.691398 
L 305.840499 168.445843 
L 295.029378 177.46328 
L 284.620073 185.792744 
L 274.60661 193.480992 
L 264.983278 200.572514 
L 255.744621 207.109522 
L 246.885444 213.131957 
L 238.40081 218.67749 
L 230.285111 223.781334 
L 222.522629 228.473462 
L 215.099644 232.780643 
L 208.004496 236.728656 
L 201.225923 240.342191 
L 194.753067 243.644845 
L 188.575472 246.659121 
L 177.066245 251.907095 
L 166.622621 256.244296 
L 157.174398 259.811085 
L 148.64184 262.721497 
L 140.946809 265.068277 
L 134.018474 266.93569 
L 127.791697 268.399998 
L 122.207026 269.529466 
L 114.913156 270.721827 
L 108.757626 271.438365 
L 103.580762 271.796858 
L 99.243356 271.897863 
L 94.557117 271.765642 
L 90.897681 271.435975 
L 87.456331 270.884625 
L 84.572781 270.169548 
L 82.410413 269.385513 
L 80.96379 268.643699 
L 79.993106 267.91614 
L 79.526651 267.308071 
L 79.49343 266.954281 
L 79.523975 266.932463 
L 79.524 266.932483 
" clip-path="url(#pce44e0b14a)" style="fill: none; stroke: #000000; stroke-opacity: 0.8; stroke-linecap: round"/>
   </g>
   <g id="line2d_15">
    <path d="M 407.273281 25.894851 
L 394.390191 45.575119 
L 381.771316 63.916645 
L 369.434612 81.001755 
L 357.401783 96.911939 
L 345.687946 111.722123 
L 334.294857 125.497263 
L 323.22415 138.299763 
L 312.477383 150.189501 
L 302.05604 161.223829 
L 291.961532 171.457575 
L 282.195194 180.943042 
L 272.758289 189.730006 
L 263.652003 197.865721 
L 254.877452 205.394914 
L 246.435673 212.359787 
L 238.327017 218.799962 
L 230.539981 224.750493 
L 223.063173 230.242239 
L 215.887948 235.304721 
L 209.005935 239.966229 
L 202.409042 244.253834 
L 196.089449 248.193378 
L 190.039615 251.809481 
L 184.252276 255.125537 
L 173.437393 260.944958 
L 163.591798 265.814326 
L 154.650559 269.871525 
L 146.540695 273.224644 
L 139.196113 275.970759 
L 132.556416 278.198949 
L 126.566902 279.990292 
L 121.178561 281.41787 
L 114.117001 283.007807 
L 108.128495 284.063653 
L 103.06763 284.710901 
L 98.807676 285.057139 
L 94.181349 285.193787 
L 90.546194 285.077587 
L 87.103722 284.731322 
L 84.194151 284.191292 
L 81.987331 283.543217 
L 80.356738 282.823439 
L 79.353807 282.14148 
L 78.902834 281.583881 
L 78.896493 281.293382 
L 78.899304 281.292453 
L 78.902331 281.292436 
L 78.902331 281.292436 
" clip-path="url(#pce44e0b14a)" style="fill: none; stroke: #000000; stroke-opacity: 0.8; stroke-linecap: round"/>
   </g>
   <g id="line2d_16">
    <path d="M 410.424634 66.825685 
L 395.642964 82.404941 
L 381.339267 96.85881 
L 367.513627 110.260162 
L 354.16915 122.68129 
L 341.304908 134.188437 
L 328.91047 144.837906 
L 316.975732 154.683752 
L 305.490966 163.777829 
L 294.446824 172.16978 
L 283.834336 179.907046 
L 273.64491 187.034861 
L 263.870332 193.596255 
L 254.502767 199.632049 
L 245.534757 205.180862 
L 236.959223 210.279106 
L 228.768417 214.960739 
L 220.945127 219.254222 
L 213.47465 223.185165 
L 206.344152 226.778275 
L 199.541249 230.057204 
L 193.054008 233.044543 
L 180.981039 238.229548 
L 170.038801 242.49291 
L 160.148064 245.97734 
L 151.22967 248.805099 
L 143.197889 251.070953 
L 135.975846 252.858306 
L 129.492739 254.24297 
L 123.683802 255.293163 
L 116.106332 256.370907 
L 109.723007 256.984549 
L 104.363711 257.249135 
L 99.880308 257.263071 
L 95.044948 257.028288 
L 91.277179 256.613382 
L 87.742967 255.971992 
L 85.203029 255.304955 
L 83.108624 254.549691 
L 81.406439 253.703561 
L 80.327458 252.92833 
L 79.747775 252.249004 
L 79.633542 251.812254 
L 79.692384 251.725971 
L 79.692964 251.726216 
" clip-path="url(#pce44e0b14a)" style="fill: none; stroke: #000000; stroke-opacity: 0.8; stroke-linecap: round"/>
   </g>
   <g id="line2d_17">
    <path d="M 371.656651 74.685703 
L 359.316571 89.233843 
L 347.337007 102.75203 
L 335.722547 115.305852 
L 324.481079 126.960671 
L 313.615489 137.77587 
L 303.119669 147.802377 
L 292.987729 157.089129 
L 283.214014 165.683082 
L 273.793106 173.629214 
L 264.719821 180.970521 
L 255.989213 187.748019 
L 247.59657 194.000744 
L 239.537416 199.765754 
L 231.807512 205.078122 
L 224.402853 209.970947 
L 217.319187 214.475259 
L 210.543447 218.617731 
L 204.063148 222.421739 
L 197.868114 225.909787 
L 191.948531 229.103441 
L 180.898262 234.689156 
L 170.841025 239.332697 
L 161.711263 243.1729 
L 153.448924 246.333622 
L 145.987708 248.918801 
L 139.257913 251.008134 
L 133.19658 252.672993 
L 127.746141 253.978936 
L 120.603235 255.393985 
L 114.562778 256.309515 
L 109.471307 256.846691 
L 105.19334 257.097058 
L 100.554785 257.120699 
L 96.919707 256.923005 
L 93.487317 256.498071 
L 90.59608 255.888249 
L 88.413 255.188644 
L 86.808579 254.43163 
L 85.832135 253.725172 
L 85.40356 253.156214 
L 85.408719 252.865302 
L 85.410477 252.864705 
L 85.414629 252.864509 
L 85.414629 252.864509 
" clip-path="url(#pce44e0b14a)" style="fill: none; stroke: #000000; stroke-opacity: 0.8; stroke-linecap: round"/>
   </g>
   <g id="line2d_18">
    <path d="M 403.829848 75.642489 
L 389.184855 89.926507 
L 375.042161 103.163065 
L 361.398476 115.42081 
L 348.254064 126.768452 
L 335.60494 137.268303 
L 323.438286 146.972837 
L 311.741774 155.932484 
L 300.503594 164.19565 
L 289.712452 171.808723 
L 279.357571 178.816065 
L 269.428689 185.260018 
L 259.916064 191.180902 
L 250.810469 196.617014 
L 242.103192 201.604629 
L 233.786041 206.178001 
L 225.851212 210.369332 
L 218.283092 214.206139 
L 211.06468 217.711671 
L 204.182504 220.908473 
L 197.62359 223.818166 
L 185.426158 228.858085 
L 174.378592 232.985888 
L 164.395089 236.341233 
L 155.39782 239.04897 
L 147.307174 241.214513 
L 140.039895 242.916467 
L 133.5215 244.224035 
L 127.683749 245.200842 
L 122.464641 245.904933 
L 115.675639 246.562949 
L 109.979097 246.862242 
L 105.21337 246.893227 
L 101.240455 246.733835 
L 96.972132 246.337695 
L 93.661493 245.826684 
L 90.573211 245.123765 
L 88.010884 244.303054 
L 86.114596 243.46151 
L 84.759224 242.620168 
L 83.97307 241.882304 
L 83.668583 241.320537 
L 83.720603 241.053213 
L 83.724949 241.053301 
" clip-path="url(#pce44e0b14a)" style="fill: none; stroke: #000000; stroke-opacity: 0.8; stroke-linecap: round"/>
   </g>
   <g id="line2d_19">
    <path d="M 417.38294 36.508726 
L 404.189328 54.129286 
L 391.329575 70.527467 
L 378.814645 85.779765 
L 366.659592 99.962393 
L 354.873166 113.144847 
L 343.452285 125.386836 
L 332.393988 136.745751 
L 321.695462 147.27668 
L 311.354045 157.032412 
L 301.367222 166.063434 
L 291.732628 174.417932 
L 282.448047 182.14179 
L 273.511411 189.278593 
L 264.920801 195.86962 
L 256.674448 201.953855 
L 248.770621 207.567964 
L 241.198113 212.74444 
L 233.942817 217.511111 
L 226.994569 221.894581 
L 220.343563 225.920369 
L 213.980356 229.612914 
L 207.895863 232.995574 
L 202.08136 236.090623 
L 191.229227 241.501585 
L 181.361367 246.002372 
L 172.418559 249.731755 
L 164.326925 252.800956 
L 157.014793 255.299774 
L 150.417186 257.310479 
L 144.474824 258.908376 
L 139.134122 260.16181 
L 132.146092 261.527065 
L 126.236424 262.404395 
L 121.254005 262.906918 
L 117.068483 263.13295 
L 112.533659 263.143043 
L 108.980922 262.935201 
L 105.627531 262.505088 
L 102.804305 261.900364 
L 100.67445 261.207323 
L 99.111021 260.460685 
L 98.160767 259.766556 
L 97.745077 259.208833 
L 97.752478 258.924227 
L 97.756266 258.923344 
L 97.757917 258.923584 
L 97.757917 258.923584 
" clip-path="url(#pce44e0b14a)" style="fill: none; stroke: #000000; stroke-opacity: 0.8; stroke-linecap: round"/>
   </g>
   <g id="line2d_20">
    <path d="M 399.935563 75.642489 
L 386.086549 89.875033 
L 372.694433 103.07453 
L 359.758225 115.308131 
L 347.279898 126.642598 
L 335.257848 137.139129 
L 323.681451 146.849381 
L 312.540437 155.822959 
L 301.824945 164.107462 
L 291.525524 171.748485 
L 281.633135 178.789615 
L 272.139146 185.272435 
L 263.035337 191.236521 
L 254.313896 196.719445 
L 245.967422 201.75677 
L 237.988924 206.382056 
L 230.371419 210.626765 
L 223.09949 214.517521 
L 216.158265 218.07756 
L 209.535442 221.329368 
L 203.219163 224.294483 
L 191.461017 229.446081 
L 180.797806 233.685803 
L 171.150593 237.151999 
L 162.447113 239.967755 
L 154.609396 242.233176 
L 147.560456 244.027999 
L 141.231036 245.42456 
L 135.557437 246.488261 
L 128.151046 247.585668 
L 121.909625 248.22416 
L 116.667243 248.516842 
L 112.279565 248.557995 
L 107.544383 248.35553 
L 103.852206 247.972443 
L 100.38639 247.366596 
L 97.488195 246.603132 
L 95.321408 245.77945 
L 93.876488 245.009582 
L 92.912642 244.260288 
L 92.456576 243.638485 
L 92.430248 243.282238 
L 92.462937 243.258748 
L 92.46298 243.258784 
" clip-path="url(#pce44e0b14a)" style="fill: none; stroke: #000000; stroke-opacity: 0.8; stroke-linecap: round"/>
   </g>
   <g id="line2d_21">
    <path d="M 425.447169 53.428812 
L 410.619967 70.880393 
L 396.226657 87.096119 
L 382.272672 102.15471 
L 368.767494 116.134676 
L 355.714602 129.10734 
L 343.106512 141.13376 
L 330.936017 152.272615 
L 319.196211 162.580213 
L 307.880484 172.1105 
L 296.982527 180.915052 
L 286.496332 189.043081 
L 276.416186 196.54143 
L 266.736678 203.454577 
L 257.452696 209.824633 
L 248.559425 215.691342 
L 240.051968 221.092016 
L 231.915109 226.058882 
L 224.133362 230.619914 
L 216.694441 234.802046 
L 209.586499 238.631097 
L 202.798126 242.131774 
L 196.318347 245.327666 
L 190.136628 248.241253 
L 178.627414 253.305847 
L 168.194945 257.483093 
L 158.766884 260.911679 
L 150.258119 263.700354 
L 142.589333 265.938499 
L 135.688145 267.708205 
L 129.488564 269.084511 
L 123.930989 270.135408 
L 116.680642 271.230306 
L 110.569341 271.870973 
L 105.434771 272.168367 
L 101.136414 272.218496 
L 96.497158 272.033073 
L 92.878888 271.6658 
L 89.481191 271.080679 
L 86.639058 270.33969 
L 84.512809 269.53837 
L 83.094438 268.787318 
L 82.147411 268.055511 
L 81.697572 267.447827 
L 81.671608 267.097037 
L 81.702297 267.075773 
L 81.702317 267.075789 
" clip-path="url(#pce44e0b14a)" style="fill: none; stroke: #000000; stroke-opacity: 0.8; stroke-linecap: round"/>
   </g>
   <g id="line2d_22">
    <path d="M 418.599362 37.105656 
L 405.324064 54.361045 
L 392.396534 70.414302 
L 379.82641 85.340936 
L 367.626608 99.215752 
L 355.805026 112.10757 
L 344.358034 124.075398 
L 333.282069 135.175909 
L 322.573706 145.463484 
L 312.229651 154.99021 
L 302.246746 163.805878 
L 292.621967 171.957987 
L 283.352425 179.491741 
L 274.435364 186.450052 
L 265.868162 192.873536 
L 257.648334 198.800517 
L 249.772979 204.266945 
L 242.228882 209.304092 
L 235.003229 213.939433 
L 228.0858 218.199351 
L 221.466726 222.10913 
L 215.136484 225.692952 
L 209.0859 228.973902 
L 197.788743 234.71402 
L 187.508813 239.492161 
L 178.184859 243.453432 
L 169.746949 246.720163 
L 162.120071 249.386776 
L 155.236231 251.537963 
L 149.033336 253.251569 
L 143.45519 254.598595 
L 136.150766 256.070138 
L 129.972963 257.028232 
L 124.762169 257.589076 
L 120.382352 257.853524 
L 115.633604 257.891579 
L 111.911211 257.697778 
L 108.395108 257.270694 
L 105.43208 256.655776 
L 103.193644 255.944854 
L 101.681829 255.249152 
L 100.652288 254.549816 
L 100.141058 253.95214 
L 100.084131 253.595694 
L 100.113533 253.572464 
L 100.113569 253.572489 
" clip-path="url(#pce44e0b14a)" style="fill: none; stroke: #000000; stroke-opacity: 0.8; stroke-linecap: round"/>
   </g>
   <g id="line2d_23">
    <path d="M 364.590132 51.995174 
L 352.825991 67.946535 
L 341.353545 82.793884 
L 330.183273 96.606168 
L 319.328932 109.451826 
L 308.799278 121.393709 
L 298.592098 132.485736 
L 288.70523 142.779713 
L 279.13661 152.32536 
L 269.884276 161.170317 
L 260.946369 169.360137 
L 252.321127 176.938291 
L 244.006891 183.946166 
L 236.002102 190.423068 
L 228.305301 196.406214 
L 220.91513 201.930743 
L 213.830146 207.029686 
L 207.039965 211.732205 
L 200.532555 216.063502 
L 194.29903 220.047702 
L 188.33081 223.707938 
L 182.619623 227.066354 
L 171.936795 232.961347 
L 162.190505 237.890028 
L 153.325625 241.993903 
L 145.289093 245.398098 
L 138.014523 248.202438 
L 131.438328 250.488366 
L 125.502638 252.330639 
L 120.154725 253.797687 
L 113.132238 255.428847 
L 107.179707 256.530683 
L 102.147902 257.223043 
L 97.908852 257.604704 
L 93.299732 257.774844 
L 89.675677 257.691935 
L 86.240594 257.376007 
L 83.333187 256.862086 
L 81.125116 256.234144 
L 79.489026 255.531837 
L 78.479848 254.860178 
L 78.022563 254.308132 
L 78.01192 254.018748 
L 78.01489 254.01776 
L 78.017739 254.017768 
L 78.017739 254.017768 
" clip-path="url(#pce44e0b14a)" style="fill: none; stroke: #000000; stroke-opacity: 0.8; stroke-linecap: round"/>
   </g>
   <g id="line2d_24">
    <path d="M 419.338334 42.95702 
L 405.664983 61.81185 
L 392.322809 79.365039 
L 379.324912 95.697694 
L 366.687805 110.890056 
L 354.42213 125.015868 
L 342.526296 138.138856 
L 330.998693 150.320224 
L 319.837739 161.618685 
L 309.041887 172.090457 
L 298.609619 181.789267 
L 288.53945 190.76635 
L 278.829925 199.070448 
L 269.479624 206.747811 
L 260.487155 213.842197 
L 251.851159 220.394871 
L 243.569146 226.444446 
L 235.627067 232.0244 
L 228.013048 237.164725 
L 220.717189 241.894214 
L 213.729912 246.240443 
L 207.04195 250.22977 
L 200.644356 253.887334 
L 194.528499 257.237054 
L 183.109048 263.102555 
L 172.720871 267.993268 
L 163.297974 272.053456 
L 154.761736 275.397461 
L 147.041563 278.126126 
L 140.072214 280.331133 
L 133.793749 282.094998 
L 128.151398 283.491022 
L 123.089846 284.579294 
L 116.470479 285.735776 
L 110.877416 286.44296 
L 106.170213 286.819158 
L 101.058455 286.962644 
L 97.04249 286.828013 
L 93.240065 286.439774 
L 90.478594 285.943102 
L 88.172614 285.317981 
L 86.266135 284.565802 
L 85.023858 283.838498 
L 84.343135 283.203077 
L 84.137599 282.743279 
L 84.187545 282.626485 
L 84.18879 282.626736 
" clip-path="url(#pce44e0b14a)" style="fill: none; stroke: #000000; stroke-opacity: 0.8; stroke-linecap: round"/>
   </g>
   <g id="line2d_25">
    <path d="M 397.129833 61.575709 
L 384.491956 77.91618 
L 372.187305 93.117309 
L 360.224808 107.250712 
L 348.617325 120.387844 
L 337.371726 132.593686 
L 326.48408 143.924015 
L 315.950617 154.432445 
L 305.767749 164.170445 
L 295.932072 173.187331 
L 286.440362 181.530274 
L 277.289576 189.244295 
L 268.476854 196.372266 
L 259.999519 202.954912 
L 251.855073 209.030808 
L 244.041202 214.636381 
L 236.55568 219.805899 
L 229.387552 224.569662 
L 222.523074 228.953537 
L 215.952265 232.98227 
L 209.665502 236.679601 
L 203.653521 240.068268 
L 197.907414 243.170003 
L 187.178984 248.594589 
L 177.416119 253.10714 
L 168.560452 256.845368 
L 160.549156 259.92733 
L 153.309589 262.44346 
L 146.776847 264.473165 
L 140.891457 266.089409 
L 135.59938 267.358711 
L 128.668857 268.741789 
L 122.808027 269.639823 
L 117.865429 270.163388 
L 113.711721 270.407319 
L 109.208656 270.43558 
L 105.679381 270.246484 
L 102.346518 269.83496 
L 99.538591 269.246686 
L 97.418402 268.568531 
L 95.859841 267.834769 
L 94.910987 267.149637 
L 94.49381 266.597776 
L 94.498913 266.315153 
L 94.503558 266.314272 
L 94.504312 266.314493 
L 94.504312 266.314493 
" clip-path="url(#pce44e0b14a)" style="fill: none; stroke: #000000; stroke-opacity: 0.8; stroke-linecap: round"/>
   </g>
   <g id="line2d_26">
    <path d="M 367.99127 75.642489 
L 355.660909 91.838795 
L 343.649336 106.908617 
L 331.966003 120.922607 
L 320.623389 133.950736 
L 309.629382 146.057467 
L 298.980889 157.298034 
L 288.674867 167.725487 
L 278.708391 177.390728 
L 269.078651 186.342518 
L 259.782955 194.627469 
L 250.818728 202.290052 
L 242.183511 209.372591 
L 233.874963 215.915265 
L 225.890859 221.956111 
L 218.22909 227.531017 
L 210.887222 232.673668 
L 203.853205 237.413421 
L 197.115054 241.776027 
L 190.663354 245.786216 
L 184.489007 249.467684 
L 178.583234 252.843098 
L 167.543877 258.761271 
L 157.481401 263.701444 
L 148.337007 267.807824 
L 140.051999 271.206067 
L 132.555263 273.99517 
L 125.782576 276.261197 
L 119.674829 278.08246 
L 114.17768 279.52949 
L 106.968684 281.132913 
L 100.857899 282.198304 
L 95.695314 282.850108 
L 91.349908 283.194504 
L 86.631123 283.323115 
L 82.924327 283.198059 
L 79.414931 282.83784 
L 76.449408 282.281484 
L 74.201435 281.61527 
L 72.676184 280.95156 
L 71.629994 280.275604 
L 71.102692 279.690729 
L 71.035688 279.335642 
L 71.06312 279.313811 
L 71.063153 279.313834 
" clip-path="url(#pce44e0b14a)" style="fill: none; stroke: #000000; stroke-opacity: 0.8; stroke-linecap: round"/>
   </g>
   <g id="line2d_27">
    <path d="M 416.958691 52.543314 
L 402.105481 69.50571 
L 387.699904 85.260569 
L 373.745877 99.885148 
L 360.250874 113.456253 
L 347.217414 126.044145 
L 334.637153 137.708676 
L 322.502023 148.507337 
L 310.804277 158.495296 
L 299.536492 167.725396 
L 288.691565 176.248156 
L 278.262714 184.111767 
L 268.243481 191.3621 
L 258.627728 198.042698 
L 249.40964 204.194781 
L 240.583724 209.857243 
L 232.144314 215.066562 
L 224.075619 219.854007 
L 216.362306 224.246932 
L 208.99191 228.271706 
L 201.952406 231.953597 
L 195.232208 235.316772 
L 188.820171 238.384296 
L 176.878209 243.719152 
L 166.04617 248.120666 
L 156.250338 251.733585 
L 147.408911 254.676818 
L 139.439105 257.045056 
L 132.266541 258.924084 
L 125.822791 260.391668 
L 120.045369 261.517548 
L 112.503129 262.695898 
L 106.141925 263.392486 
L 100.795184 263.726467 
L 96.317701 263.799811 
L 91.483155 263.629861 
L 87.710677 263.264273 
L 84.166035 262.671253 
L 81.613932 262.038529 
L 79.504777 261.311629 
L 77.785322 260.488965 
L 76.689683 259.729084 
L 76.09517 259.058178 
L 75.970997 258.623487 
L 76.027765 258.536523 
L 76.028391 258.536766 
" clip-path="url(#pce44e0b14a)" style="fill: none; stroke: #000000; stroke-opacity: 0.8; stroke-linecap: round"/>
   </g>
   <g id="line2d_28">
    <path d="M 364.590132 74.149516 
L 352.945967 88.506509 
L 341.62627 101.854721 
L 330.637218 114.257984 
L 319.987769 125.779586 
L 309.682856 136.477726 
L 299.717863 146.402104 
L 290.088295 155.600455 
L 280.789832 164.118583 
L 271.818332 172.000362 
L 263.169829 179.287735 
L 254.840533 186.020717 
L 246.826832 192.237391 
L 239.125288 197.973912 
L 231.732642 203.264503 
L 224.64581 208.141458 
L 217.861486 212.635076 
L 211.367842 216.771586 
L 205.153228 220.573956 
L 199.208338 224.064276 
L 193.524184 227.263717 
L 182.903751 232.870033 
L 173.226474 237.543831 
L 164.432045 241.421298 
L 156.464948 244.623777 
L 149.262055 247.251539 
L 142.758446 249.384614 
L 136.89576 251.095453 
L 131.620295 252.449824 
L 124.702125 253.940428 
L 118.842681 254.925833 
L 113.895529 255.523001 
L 109.733263 255.828603 
L 105.214839 255.922632 
L 101.668007 255.783904 
L 98.312677 255.419074 
L 95.479664 254.869473 
L 93.33475 254.219289 
L 91.752043 253.505459 
L 90.782422 252.831649 
L 90.349823 252.283805 
L 90.34749 252.000212 
L 90.352391 251.999126 
L 90.353223 251.99935 
L 90.353223 251.99935 
" clip-path="url(#pce44e0b14a)" style="fill: none; stroke: #000000; stroke-opacity: 0.8; stroke-linecap: round"/>
   </g>
   <g id="line2d_29">
    <path d="M 386.722107 37.554594 
L 374.009392 55.509833 
L 361.593973 72.229947 
L 349.489277 87.791657 
L 337.712389 102.271079 
L 326.274258 115.73793 
L 315.173935 128.252447 
L 304.410475 139.872511 
L 293.982965 150.653659 
L 283.89053 160.649088 
L 274.132327 169.909656 
L 264.707553 178.483881 
L 255.615437 186.41794 
L 246.855244 193.755669 
L 238.426276 200.538564 
L 230.327868 206.805783 
L 222.558873 212.594083 
L 215.107374 217.935764 
L 207.961469 222.859159 
L 201.11196 227.391406 
L 194.549955 231.558521 
L 188.266871 235.385395 
L 182.254432 238.895794 
L 176.504671 242.112362 
L 165.762849 247.748953 
L 155.983825 252.453827 
L 147.11061 256.366853 
L 139.070868 259.599053 
L 131.796248 262.242519 
L 125.224357 264.381913 
L 119.298412 266.094674 
L 113.967229 267.451019 
L 106.984191 268.950741 
L 101.069433 269.939279 
L 96.0751 270.533799 
L 91.873412 270.836197 
L 87.313913 270.928402 
L 83.735034 270.783424 
L 80.349582 270.410793 
L 77.491853 269.853479 
L 75.328454 269.195169 
L 73.732965 268.472553 
L 72.755569 267.791783 
L 72.320228 267.238364 
L 72.318354 266.952222 
L 72.322092 266.951172 
L 72.32413 266.951348 
L 72.32413 266.951348 
" clip-path="url(#pce44e0b14a)" style="fill: none; stroke: #000000; stroke-opacity: 0.8; stroke-linecap: round"/>
   </g>
   <g id="line2d_30">
    <path d="M 364.590132 75.642489 
L 352.63841 89.367739 
L 341.044971 102.116859 
L 329.81319 113.952248 
L 318.94908 124.93578 
L 308.454976 135.12429 
L 298.3244 144.566198 
L 288.551062 153.307998 
L 279.128911 161.394299 
L 270.052135 168.867821 
L 261.31516 175.769395 
L 252.912653 182.137968 
L 244.839519 188.010597 
L 237.090901 193.422453 
L 229.662182 198.406819 
L 222.548985 202.995089 
L 215.746574 207.216657 
L 209.241897 211.096591 
L 203.023068 214.6571 
L 197.080151 217.919584 
L 185.984036 223.631574 
L 175.880975 228.385723 
L 166.703918 232.320744 
L 158.391346 235.560907 
L 150.882213 238.213736 
L 144.107208 240.362981 
L 138.004057 242.081663 
L 132.51543 243.436245 
L 125.321132 244.914626 
L 119.231958 245.878681 
L 114.095297 246.451131 
L 109.777073 246.729044 
L 105.092892 246.782777 
L 101.419455 246.605435 
L 97.948318 246.195818 
L 95.021531 245.59877 
L 92.80946 244.904704 
L 91.181093 244.149855 
L 90.18746 243.442319 
L 89.748262 242.870438 
L 89.750562 242.576515 
L 89.751211 242.576267 
L 89.756523 242.575681 
L 89.756523 242.575681 
" clip-path="url(#pce44e0b14a)" style="fill: none; stroke: #000000; stroke-opacity: 0.8; stroke-linecap: round"/>
   </g>
   <g id="line2d_31">
    <path d="M 414.925105 47.930939 
L 401.601464 64.008764 
L 388.65783 78.952833 
L 376.100242 92.835103 
L 363.938221 105.72716 
L 352.176646 117.694694 
L 340.809338 128.793495 
L 329.830324 139.077162 
L 319.233897 148.59715 
L 309.014619 157.402767 
L 299.167315 165.541175 
L 289.687078 173.057389 
L 280.569267 179.994279 
L 271.809507 186.392566 
L 263.40369 192.290828 
L 255.347974 197.725494 
L 247.638716 202.730837 
L 240.263956 207.337007 
L 233.208791 211.56961 
L 226.462244 215.453229 
L 220.013729 219.011443 
L 213.853058 222.26683 
L 207.970436 225.240963 
L 197.002129 230.426756 
L 187.038338 234.721373 
L 178.014899 238.261328 
L 169.863745 241.163383 
L 162.508675 243.516372 
L 155.88136 245.398241 
L 149.919224 246.880677 
L 144.565448 248.029106 
L 137.565328 249.253205 
L 131.657053 250.016596 
L 126.683939 250.426339 
L 122.512593 250.574486 
L 117.999982 250.498494 
L 114.471762 250.226649 
L 111.14924 249.737252 
L 108.359798 249.082961 
L 106.262994 248.354252 
L 104.731342 247.582645 
L 103.808331 246.874277 
L 103.412793 246.311622 
L 103.42934 246.028605 
L 103.432766 246.027816 
L 103.43477 246.028064 
L 103.43477 246.028064 
" clip-path="url(#pce44e0b14a)" style="fill: none; stroke: #000000; stroke-opacity: 0.8; stroke-linecap: round"/>
   </g>
   <g id="line2d_32">
    <path d="M 364.590132 25.894851 
L 354.137126 44.963557 
L 343.821072 62.764182 
L 333.665627 79.373079 
L 323.6971 94.865287 
L 313.936418 109.310635 
L 304.390865 122.770059 
L 295.067297 135.302061 
L 285.972255 146.962766 
L 277.111962 157.80592 
L 268.492327 167.882888 
L 260.118942 177.242661 
L 251.997085 185.931847 
L 244.131715 193.994678 
L 236.52748 201.473007 
L 229.188707 208.406309 
L 222.118365 214.831622 
L 215.307821 220.782029 
L 208.749831 226.287098 
L 202.438923 231.375088 
L 196.369756 236.07307 
L 190.537121 240.406927 
L 184.93594 244.401351 
L 179.561264 248.079844 
L 169.472301 254.577108 
L 160.23328 260.062958 
L 151.801017 264.68034 
L 144.116334 268.544543 
L 137.125524 271.75709 
L 130.778827 274.410481 
L 125.03039 276.588188 
L 119.83822 278.36465 
L 112.996363 280.409315 
L 107.159713 281.850317 
L 102.199205 282.82478 
L 98.002101 283.449357 
L 93.416012 283.888359 
L 89.786691 284.00979 
L 86.322987 283.891326 
L 83.367289 283.544255 
L 81.098115 283.044329 
L 79.394115 282.434875 
L 78.318627 281.822294 
L 77.806404 281.29717 
L 77.766262 281.008983 
L 77.772381 281.007216 
L 77.772629 281.007309 
L 77.772629 281.007309 
" clip-path="url(#pce44e0b14a)" style="fill: none; stroke: #000000; stroke-opacity: 0.8; stroke-linecap: round"/>
   </g>
   <g id="line2d_33">
    <path d="M 364.590132 75.642489 
L 353.495059 91.797903 
L 342.647343 106.846915 
L 332.060122 120.857977 
L 321.749359 133.898734 
L 311.726292 146.031644 
L 301.991061 157.310594 
L 292.543721 167.787332 
L 283.384311 177.51151 
L 274.512855 186.530683 
L 265.929358 194.890309 
L 257.633811 202.633752 
L 249.626188 209.802276 
L 241.906447 216.435051 
L 234.474531 222.569148 
L 227.330363 228.239543 
L 220.473279 233.479053 
L 213.892879 238.316514 
L 207.579246 242.777399 
L 201.524633 246.886112 
L 195.721541 250.66604 
L 190.162721 254.139549 
L 179.750136 260.251683 
L 170.23384 265.381061 
L 161.564766 269.669916 
L 153.693158 273.243414 
L 146.555782 276.200681 
L 140.093176 278.62484 
L 134.250982 280.592368 
L 128.979785 282.173201 
L 122.04768 283.956293 
L 116.16109 285.188448 
L 111.17522 285.990985 
L 106.966805 286.4659 
L 102.381549 286.738748 
L 98.767869 286.737635 
L 95.333311 286.499832 
L 92.416802 286.052796 
L 90.19236 285.477208 
L 88.534949 284.814143 
L 87.503313 284.167607 
L 87.026029 283.627981 
L 87.003813 283.340064 
L 87.008195 283.338646 
L 87.009901 283.338799 
L 87.009901 283.338799 
" clip-path="url(#pce44e0b14a)" style="fill: none; stroke: #000000; stroke-opacity: 0.8; stroke-linecap: round"/>
   </g>
   <g id="line2d_34">
    <path d="M 388.636841 57.0342 
L 376.349022 72.199685 
L 364.403236 86.299753 
L 352.806042 99.40181 
L 341.566645 111.572501 
L 330.690584 122.873484 
L 320.173078 133.357277 
L 310.009427 143.074295 
L 300.195112 152.072912 
L 290.725789 160.399462 
L 281.597294 168.098235 
L 272.805637 175.211483 
L 264.347009 181.779415 
L 256.217777 187.8402 
L 248.414485 193.429964 
L 240.933857 198.582795 
L 233.772318 203.33066 
L 226.917293 207.701183 
L 220.356656 211.718664 
L 214.080631 215.406479 
L 208.079774 218.787025 
L 202.344975 221.881716 
L 191.638782 227.294295 
L 181.895842 231.795923 
L 173.05528 235.522613 
L 165.056583 238.592715 
L 157.828795 241.098978 
L 151.307648 243.121542 
L 145.434047 244.733504 
L 140.153853 246.000915 
L 133.239448 247.382868 
L 127.389387 248.276585 
L 122.455705 248.79562 
L 118.309715 249.037043 
L 113.815795 249.065264 
L 110.293594 248.874234 
L 106.967401 248.461668 
L 104.165351 247.873845 
L 102.04972 247.195991 
L 100.494985 246.462581 
L 99.548385 245.778542 
L 99.132409 245.227585 
L 99.137724 244.945508 
L 99.142779 244.944706 
L 99.143119 244.944856 
L 99.143119 244.944856 
" clip-path="url(#pce44e0b14a)" style="fill: none; stroke: #000000; stroke-opacity: 0.8; stroke-linecap: round"/>
   </g>
   <g id="line2d_35">
    <path d="M 364.590132 74.922883 
L 353.001175 90.018126 
L 341.715014 104.062079 
L 330.74016 117.120755 
L 320.088045 129.25959 
L 309.765745 140.538807 
L 299.770068 151.009955 
L 290.097893 160.72255 
L 280.746225 169.724108 
L 271.712194 178.060147 
L 262.993059 185.774189 
L 254.586204 192.907755 
L 246.489142 199.500369 
L 238.699509 205.589558 
L 231.215073 211.21085 
L 224.033724 216.397775 
L 217.153165 221.181822 
L 210.56229 225.590502 
L 204.249532 229.6478 
L 198.205949 233.376744 
L 192.422903 236.799403 
L 181.605402 242.809376 
L 171.734051 247.83518 
L 162.750766 252.01899 
L 154.602094 255.487625 
L 147.226411 258.346415 
L 140.558931 260.679588 
L 134.541637 262.563348 
L 129.121058 264.066824 
L 122.003251 265.742806 
L 115.965214 266.8748 
L 110.859447 267.587059 
L 106.557274 267.982644 
L 101.879237 268.166204 
L 98.199988 268.089338 
L 94.711623 267.775089 
L 91.758289 267.259763 
L 89.514554 266.626622 
L 87.851251 265.916931 
L 86.824277 265.237333 
L 86.358086 264.677853 
L 86.34624 264.384112 
L 86.347719 264.383531 
L 86.352148 264.383109 
L 86.352148 264.383109 
" clip-path="url(#pce44e0b14a)" style="fill: none; stroke: #000000; stroke-opacity: 0.8; stroke-linecap: round"/>
   </g>
   <g id="line2d_36">
    <path d="M 386.747265 65.912154 
L 373.347143 80.52234 
L 360.368161 94.083757 
L 347.811821 106.663966 
L 335.682736 118.330179 
L 323.981408 129.14386 
L 312.699047 139.15718 
L 301.827162 148.420248 
L 291.357602 156.981153 
L 281.282556 164.885956 
L 271.594556 172.178693 
L 262.286473 178.901377 
L 253.35152 185.093993 
L 244.783251 190.794503 
L 236.57556 196.038845 
L 228.722683 200.860928 
L 221.218804 205.292562 
L 214.049449 209.360901 
L 207.200462 213.089613 
L 200.660279 216.50154 
L 194.417753 219.618575 
L 182.783145 225.050768 
L 172.215734 229.542265 
L 162.641237 233.233896 
L 153.991746 236.251245 
L 146.194121 238.699472 
L 139.172812 240.658528 
L 132.859534 242.199906 
L 127.191848 243.389321 
L 122.113162 244.286713 
L 115.489943 245.202039 
L 109.914926 245.721406 
L 105.235681 245.939968 
L 100.167679 245.904517 
L 96.20078 245.638793 
L 92.460511 245.130165 
L 89.75704 244.54365 
L 87.510654 243.850174 
L 85.667839 243.041587 
L 84.481126 242.280063 
L 83.844178 241.628755 
L 83.667458 241.166915 
L 83.723874 241.05301 
L 83.724944 241.053304 
" clip-path="url(#pce44e0b14a)" style="fill: none; stroke: #000000; stroke-opacity: 0.8; stroke-linecap: round"/>
   </g>
   <g id="line2d_37">
    <path d="M 364.590132 42.124649 
L 354.1152 58.817959 
L 343.837821 74.382197 
L 333.774622 88.886432 
L 323.944714 102.398664 
L 314.362406 114.981894 
L 305.030689 126.690897 
L 295.952319 137.578258 
L 287.129897 147.694417 
L 278.565868 157.087667 
L 270.262521 165.804154 
L 262.221989 173.88788 
L 254.446249 181.3807 
L 246.937121 188.322321 
L 239.69627 194.750307 
L 232.725204 200.700073 
L 226.024 206.204764 
L 219.582631 211.293484 
L 213.393272 215.992474 
L 207.449422 220.326881 
L 201.744762 224.320785 
L 196.273151 227.997194 
L 186.005421 234.484215 
L 176.600724 239.950631 
L 168.016436 244.542018 
L 160.204386 248.384266 
L 153.105038 251.578127 
L 146.66443 254.212684 
L 140.832684 256.369094 
L 135.564012 258.120584 
L 128.625217 260.128577 
L 122.713412 261.541646 
L 117.693059 262.490365 
L 113.44593 263.08701 
L 108.80869 263.493715 
L 105.142777 263.591432 
L 101.646752 263.443135 
L 98.666717 263.070884 
L 96.382596 262.547835 
L 94.669578 261.920748 
L 93.591788 261.29369 
L 93.081813 260.759331 
L 93.045011 260.468103 
L 93.048769 260.466556 
L 93.051481 260.466471 
L 93.051481 260.466471 
" clip-path="url(#pce44e0b14a)" style="fill: none; stroke: #000000; stroke-opacity: 0.8; stroke-linecap: round"/>
   </g>
   <g id="line2d_38">
    <path d="M 377.091863 51.118517 
L 365.089195 66.46164 
L 353.4074 80.733012 
L 342.05444 94.000105 
L 331.041435 106.329929 
L 320.374464 117.783726 
L 310.049796 128.414191 
L 300.063807 138.271946 
L 290.413009 147.405563 
L 281.094051 155.861561 
L 272.103717 163.684406 
L 263.438928 170.916513 
L 255.096743 177.598244 
L 247.074354 183.767911 
L 239.369091 189.46177 
L 231.97842 194.714028 
L 224.899337 199.556748 
L 218.11949 204.017681 
L 211.627398 208.121316 
L 205.413723 211.891183 
L 199.469448 215.349829 
L 193.785876 218.518818 
L 183.167645 224.06917 
L 173.49584 228.695101 
L 164.712385 232.533746 
L 156.760001 235.705618 
L 149.569756 238.305239 
L 143.077454 240.411298 
L 137.224409 242.096213 
L 131.957243 243.426255 
L 125.051301 244.885759 
L 119.207169 245.849467 
L 114.274569 246.430223 
L 110.125593 246.722445 
L 105.622501 246.801474 
L 102.088964 246.652964 
L 98.747534 246.279655 
L 95.92757 245.72269 
L 93.793646 245.068738 
L 92.220254 244.352767 
L 91.25755 243.678456 
L 90.829664 243.1311 
L 90.828678 242.848577 
L 90.833875 242.847549 
L 90.834396 242.847734 
L 90.834396 242.847734 
" clip-path="url(#pce44e0b14a)" style="fill: none; stroke: #000000; stroke-opacity: 0.8; stroke-linecap: round"/>
   </g>
  </g>
 </g>
 <defs>
  <clipPath id="pce44e0b14a">
   <rect x="48.008" y="10.8" width="401.992" height="292.552"/>
  </clipPath>
 </defs>
</svg>
